# Blender 4.3.2
# www.blender.org
o Cube.001_0
v -10.604691 -6.097509 5.302346
v -10.173416 -4.469759 5.086729
v -10.173416 -4.469760 -5.086728
v -10.604691 -6.097511 -5.302344
v -10.604691 -6.097511 -5.302344
v -10.173416 -4.469760 -5.086728
v 10.173416 -4.469760 -5.086728
v 10.604691 -6.097511 -5.302344
v 10.604691 -6.097511 -5.302344
v 10.173416 -4.469760 -5.086728
v 10.173416 -4.469759 5.086729
v 10.604691 -6.097509 5.302346
v -10.173416 -4.469759 5.086729
v -10.604691 -6.097509 5.302346
v 10.604691 -6.097509 5.302346
v 10.173416 -4.469759 5.086729
v 10.604691 -6.097509 5.302346
v -10.604691 -6.097509 5.302346
v -10.604691 -6.097511 -5.302344
v 10.604691 -6.097511 -5.302344
v 10.173416 -4.469760 -5.086728
v -10.173416 -4.469760 -5.086728
v -10.173416 -4.469759 5.086729
v 10.173416 -4.469759 5.086729
vn -0.9666 0.2561 -0.0000
vn -0.0000 0.1313 -0.9913
vn 0.9666 0.2561 -0.0000
vn -0.0000 0.1313 0.9913
vn -0.0000 -1.0000 -0.0000
vn -0.0000 1.0000 -0.0000
vt 0.721440 0.575530
vt 0.719850 0.509730
vt 0.323300 0.509730
vt 0.312310 0.574560
vt 0.918660 0.294110
vt 0.901800 0.229950
vt 0.106730 0.229950
vt 0.089880 0.294110
vt 0.703230 0.428060
vt 0.697730 0.364210
vt 0.306060 0.364210
vt 0.297630 0.428060
vt 0.100760 0.086720
vt 0.083910 0.150880
vt 0.912690 0.150880
vt 0.895840 0.086720
vt 0.099190 0.959290
vt 0.430550 0.959290
vt 0.430550 0.793610
vt 0.099190 0.793610
vt 0.902560 0.785210
vt 0.577970 0.785210
vt 0.577970 0.947510
vt 0.902560 0.947510
s 0
f 1/1/1 2/2/1 3/3/1
f 1/1/1 3/3/1 4/4/1
f 5/5/2 6/6/2 7/7/2
f 5/5/2 7/7/2 8/8/2
f 9/9/3 10/10/3 11/11/3
s 1
f 9/9/3 11/11/3 12/12/3
s 0
f 13/13/4 14/14/4 15/15/4
f 13/13/4 15/15/4 16/16/4
f 17/17/5 18/18/5 19/19/5
f 17/17/5 19/19/5 20/20/5
f 21/21/6 22/22/6 23/23/6
f 21/21/6 23/23/6 24/24/6
