# Blender 4.3.2
# www.blender.org
o Object_4
v -10.028564 31.998755 13.183682
v -3.613377 31.998755 13.183681
v -3.613377 47.002586 13.073835
v -10.028564 46.898617 13.074596
v 9.816594 31.998755 13.183682
v 9.816594 46.898617 13.074596
v 3.401407 47.002586 13.073835
v 3.401407 31.998755 13.183681
v 1.942284 46.950634 13.074214
v -2.154255 46.950634 13.074214
v -2.154255 31.998755 13.183681
v 1.942284 31.998755 13.183681
v 16.335810 30.652658 9.586450
v 16.335810 30.657852 2.437219
v 16.335810 46.567928 2.320737
v 16.335810 46.620266 9.469546
vn -0.0000 0.0073 1.0000
vn 1.0000 -0.0000 -0.0000
vt 0.000500 0.479571
vt 0.479571 0.479571
vt 0.479571 0.000500
vt 0.000500 0.003820
vt 0.999500 0.999500
vt 0.999500 0.523749
vt 0.520429 0.520429
vt 0.520429 0.999500
vt 0.908609 0.005531
vt 0.482269 0.005531
vt 0.482269 0.431871
vt 0.908609 0.431871
vt 0.000500 0.999500
vt 0.517717 0.997636
vt 0.517717 0.482283
vt 0.000500 0.482283
s 0
f 1/1/1 2/2/1 3/3/1
f 1/1/1 3/3/1 4/4/1
f 5/5/1 6/6/1 7/7/1
f 5/5/1 7/7/1 8/8/1
f 9/9/1 10/10/1 11/11/1
f 9/9/1 11/11/1 12/12/1
f 13/13/2 14/14/2 15/15/2
f 13/13/2 15/15/2 16/16/2
