# Blender 4.3.2
# www.blender.org
mtllib top_cottoncandy.mtl
o Cube.006_0
v 0.000000 6.031861 -0.000001
v -10.484440 6.031862 1.814612
v -10.484440 6.031861 -1.814614
v 3.494810 6.031861 -5.443846
v -3.494810 6.031861 -5.443846
v -10.484440 6.031861 -1.814614
v -10.081198 6.031861 -5.443846
v -10.484440 6.031862 1.814612
v -10.484440 6.031861 -5.443846
v 10.484440 6.031861 -1.814614
v 10.081198 6.031861 -5.443846
v 10.484440 6.031861 -5.443846
v 10.484440 6.031862 1.814612
v 10.081198 6.031862 5.443845
v 10.484440 6.031862 5.443845
v -3.494810 6.031862 5.443845
v -10.484440 6.031862 5.040597
v -10.484440 6.031862 5.443845
v 3.494810 6.031862 5.443845
v 10.484440 6.031862 5.040597
v 10.484440 6.031862 5.443845
v 3.494810 10.064341 5.040596
v -3.494810 10.064341 5.040596
v -10.484440 8.048101 5.040597
v -10.484440 6.031862 5.040597
v 10.484440 6.031862 5.040597
v 10.484440 8.048101 5.040597
v 3.494810 6.031861 -5.443846
v 10.484440 6.031861 -5.040598
v 10.484440 6.031861 -5.443846
v -10.484440 6.031861 -5.040598
v -10.484440 6.031861 -5.443846
v 10.484440 6.031862 1.814612
v 3.494810 6.031862 5.443845
v -3.494810 6.031862 5.443845
v -10.081198 6.031862 5.443845
v -10.081198 6.031861 -5.443846
v -10.081198 8.048100 -5.443846
v -10.081198 10.064339 -1.814615
v -10.081198 10.064340 1.814612
v -10.081198 8.048101 5.443844
v 10.484440 8.048100 -5.443846
v 10.484440 6.031861 -5.443846
v 10.081198 6.031861 -5.443846
v 10.081198 6.031862 5.443845
v 10.081198 8.048101 5.443844
v 10.081198 10.064340 1.814612
v 10.081198 10.064339 -1.814615
v 10.081198 8.048100 -5.443846
v -3.494810 10.064339 -5.040599
v -10.484440 8.048100 -5.040599
v -10.484440 6.031861 -5.040598
v 10.484440 6.031861 -5.040598
v 10.484440 8.048100 -5.040599
v 3.494810 10.064339 -5.040599
v 10.484440 8.048101 5.443844
v 10.484440 6.031862 5.443845
v 10.484440 6.031862 1.814612
v 10.484440 10.064340 1.814612
v -10.484440 8.048101 5.443844
v -10.484440 6.031862 5.443845
v -3.494810 6.031862 5.443845
v -3.494810 10.064341 5.443844
v 10.484440 6.031862 5.443845
v 10.484440 6.031861 -1.814614
v 10.484440 6.031861 -5.443846
v 10.484440 8.048100 -5.443846
v 10.484440 10.064339 -1.814615
v -10.484440 6.031861 -1.814614
v -10.484440 6.031862 1.814612
v -10.484440 10.064340 1.814612
v -10.484440 10.064339 -1.814615
v -10.484440 6.031862 5.443845
v -10.484440 8.048101 5.443844
v -10.484440 8.048100 -5.443846
v -10.484440 6.031861 -5.443846
v -10.484440 6.031862 5.443845
v 3.494810 6.031862 5.443845
v 10.484440 6.031862 5.443845
v 10.484440 8.048101 5.443844
v 3.494810 10.064341 5.443844
v -3.494810 6.031861 -5.443846
v -10.484440 6.031861 -5.443846
v -10.484440 8.048100 -5.443846
v -3.494810 10.064339 -5.443847
v 3.494810 6.031861 -5.443846
v 3.494810 10.064339 -5.443847
v -10.081198 8.048101 5.443844
v -10.484440 8.048101 5.443844
v -10.484440 6.031862 5.443845
v -10.081198 6.031862 5.443845
v -10.081198 6.031861 -5.443846
v -10.484440 6.031861 -5.443846
v -10.484440 8.048100 -5.443846
v -10.081198 8.048100 -5.443846
v -10.081198 10.064339 -1.814615
v -10.484440 10.064339 -1.814615
v -10.484440 10.064340 1.814612
v -10.081198 10.064340 1.814612
v -10.081198 6.031862 5.443845
v -10.484440 10.064339 -1.814615
v -10.081198 10.064339 -1.814615
v -10.081198 10.064340 1.814612
v -10.484440 10.064340 1.814612
v 10.484440 8.048100 -5.443846
v 10.484440 6.031861 -5.443846
v 10.081198 10.064340 1.814612
v 10.484440 10.064340 1.814612
v 10.484440 10.064339 -1.814615
v 10.081198 10.064339 -1.814615
v 10.081198 8.048101 5.443844
v 10.484440 8.048101 5.443844
v 10.484440 10.064340 1.814612
v 10.081198 10.064340 1.814612
v 10.081198 6.031862 5.443845
v 10.081198 8.048101 5.443844
v 10.484440 8.048101 5.443844
v 10.484440 6.031862 5.443845
v 10.081198 6.031862 5.443845
v 10.081198 10.064339 -1.814615
v 10.484440 10.064339 -1.814615
v 10.484440 8.048100 -5.443846
v 10.081198 8.048100 -5.443846
v 3.494810 10.064341 5.040596
v 3.494810 10.064341 5.443844
v 10.484440 8.048101 5.443844
v 10.484440 8.048101 5.040597
v -3.494810 10.064341 5.040596
v -3.494810 10.064341 5.443844
v 3.494810 10.064341 5.443844
v 3.494810 10.064341 5.040596
v -3.494810 6.031862 5.443845
v -10.484440 6.031862 5.040597
v -10.484440 8.048101 5.040597
v -10.484440 8.048101 5.443844
v -3.494810 10.064341 5.443844
v -3.494810 10.064341 5.040596
v 10.484440 6.031862 5.040597
v 10.484440 6.031862 5.443845
v 10.484440 8.048101 5.443844
v 10.484440 8.048101 5.040597
v -3.494810 10.064339 -5.040599
v -3.494810 10.064339 -5.443847
v -10.484440 8.048100 -5.443846
v -10.484440 8.048100 -5.040599
v -10.484440 8.048100 -5.040599
v -10.484440 8.048100 -5.443846
v -10.484440 6.031861 -5.443846
v -10.484440 6.031861 -5.040598
v 10.484440 6.031861 -5.040598
v 10.484440 6.031861 -5.443846
v 10.484440 8.048100 -5.443846
v 10.484440 8.048100 -5.040599
v 3.494810 10.064339 -5.040599
v 3.494810 10.064339 -5.443847
v -3.494810 10.064339 -5.443847
v -3.494810 10.064339 -5.040599
v 10.484440 6.031861 -5.040598
v 3.494810 10.064339 -5.443847
v 3.494810 10.064339 -5.040599
v -10.484440 6.031862 5.443845
v 10.081198 6.031861 -5.443846
v 10.081198 8.048100 -5.443846
vn -0.0000 -1.0000 -0.0000
vn -0.0000 1.0000 -0.0000
vn -0.0000 -0.0000 1.0000
vn 1.0000 -0.0000 -0.0000
vn -0.0000 0.0641 -0.9979
vn -0.0000 -0.0000 -1.0000
vn -1.0000 -0.0000 -0.0000
vn -0.0000 0.6689 -0.7433
vn -0.0000 0.0652 0.9979
vn 0.9934 0.1147 -0.0000
vn -0.9743 0.2251 -0.0000
vn -0.0000 0.0327 -0.9995
vn -0.0000 0.5145 0.8575
vn -0.0000 0.0654 0.9979
vn -0.0000 0.0329 -0.9995
vn -0.0000 0.7682 -0.6402
vn -0.0000 0.8742 -0.4856
vn -0.0000 0.8742 0.4856
vn -0.0000 0.6690 -0.7432
vn 0.2772 0.9608 -0.0000
vn -0.2772 0.9608 -0.0000
vn -0.9743 0.2252 -0.0000
vn -0.6543 0.7562 -0.0000
vn -0.6544 0.7561 -0.0000
vn 0.9934 0.1151 -0.0000
vn 0.3971 0.9178 -0.0000
vt 0.892230 0.643860
vt 0.806870 0.605920
vt 0.806870 0.681790
vt 0.920680 0.757670
vt 0.863770 0.757670
vt 0.033620 0.208800
vt 0.037590 0.300440
vt 0.033620 0.117150
vt 0.033620 0.300440
vt 0.977590 0.681790
vt 0.974300 0.757670
vt 0.977590 0.757670
vt 0.118220 0.300440
vt 0.122180 0.208800
vt 0.118220 0.208800
vt 0.098680 0.300440
vt 0.106320 0.208800
vt 0.098680 0.208800
vt 0.018050 0.117150
vt 0.025690 0.025500
vt 0.018050 0.025500
vt 0.864110 0.238400
vt 0.918010 0.238400
vt 0.971910 0.130600
vt 0.971910 0.022800
vt 0.810210 0.022800
vt 0.810210 0.130600
vt 0.075770 0.300440
vt 0.083410 0.208800
vt 0.075770 0.208800
vt 0.806870 0.749240
vt 0.806870 0.757670
vt 0.977590 0.605920
vt 0.920680 0.530040
vt 0.863770 0.530040
vt 0.571470 0.354740
vt 0.787050 0.351280
vt 0.785750 0.270430
vt 0.712590 0.190740
vt 0.640730 0.191900
vt 0.570170 0.273900
vt 0.567570 0.112210
vt 0.568870 0.193050
vt 0.568880 0.193050
vt 0.784460 0.189590
vt 0.783160 0.108750
vt 0.710000 0.029060
vt 0.638140 0.030210
vt 0.567580 0.112210
vt 0.918010 0.454010
vt 0.971910 0.346210
vt 0.971910 0.238400
vt 0.810210 0.238400
vt 0.810210 0.346210
vt 0.864110 0.454010
vt 0.036700 0.480870
vt 0.036700 0.606400
vt 0.165870 0.606400
vt 0.165870 0.359220
vt 0.053910 0.816370
vt 0.053910 0.964260
vt 0.315460 0.964260
vt 0.315460 0.668470
vt 0.977590 0.530040
vt 0.307440 0.606400
vt 0.437380 0.606400
vt 0.437380 0.480870
vt 0.307440 0.359220
vt 0.169400 0.609190
vt 0.304530 0.609190
vt 0.304530 0.358810
vt 0.169400 0.358810
vt 0.439650 0.609190
vt 0.439650 0.484000
vt 0.034280 0.484000
vt 0.034280 0.609190
vt 0.806870 0.530040
vt 0.577010 0.964260
vt 0.838560 0.964260
vt 0.838560 0.816370
vt 0.577010 0.668470
vt 0.575170 0.959920
vt 0.829880 0.959920
vt 0.829880 0.819800
vt 0.575170 0.679680
vt 0.320470 0.959920
vt 0.320470 0.679680
vt 0.029650 0.162970
vt 0.033620 0.162970
vt 0.033620 0.025500
vt 0.029650 0.025500
vt 0.025690 0.162970
vt 0.126150 0.208800
vt 0.122180 0.300440
vt 0.126150 0.300440
vt 0.037590 0.025500
vt 0.025690 0.300440
vt 0.029650 0.300440
vt 0.065770 0.819800
vt 0.065770 0.959920
vt 0.130110 0.300440
vt 0.130110 0.208800
vt 0.114250 0.162970
vt 0.110290 0.162970
vt 0.110290 0.300440
vt 0.114250 0.300440
vt 0.974300 0.530040
vt 0.106320 0.300440
vt 0.106320 0.162970
vt 0.118220 0.162970
vt 0.052860 0.300440
vt 0.060500 0.300440
vt 0.060500 0.162970
vt 0.052860 0.162970
vt 0.091050 0.300440
vt 0.091050 0.208800
vt 0.018050 0.208800
vt 0.045220 0.300430
vt 0.045220 0.162960
vt 0.068130 0.300440
vt 0.075770 0.162970
vt 0.068130 0.162970
vt 0.045220 0.162970
vt 0.037590 0.162960
vt 0.037590 0.300430
vt 0.045220 0.300440
vt 0.773730 0.386330
vt 0.640810 0.568400
vt 0.640810 0.442880
vt 0.698590 0.386330
vt 0.083410 0.300440
vt 0.977590 0.749240
vt 0.623460 0.378910
vt 0.623460 0.386330
s 0
usemtl Material.002
f 1/1/1 2/2/1 3/3/1
f 4/4/1 1/1/1 5/5/1
f 6/6/1 7/7/1 8/8/1
f 9/9/1 7/7/1 6/6/1
f 10/10/1 11/11/1 12/12/1
f 13/13/2 14/14/2 15/15/2
f 16/16/2 17/17/2 18/18/2
f 19/19/1 20/20/1 21/21/1
f 22/22/3 23/23/3 24/24/3
f 24/24/3 25/25/3 26/26/3
f 26/26/3 27/27/3 22/22/3
f 24/24/3 26/26/3 22/22/3
f 28/28/2 29/29/2 30/30/2
f 5/5/1 31/31/1 32/32/1
f 10/10/1 33/33/1 1/1/1
f 1/1/1 34/34/1 35/35/1
f 36/36/4 37/37/4 38/38/4
f 38/38/4 39/39/4 40/40/4
f 40/40/4 41/41/4 36/36/4
f 38/38/4 40/40/4 36/36/4
s 1
f 42/42/5 43/43/6 44/44/6
s 0
f 162/44/7 45/45/7 46/46/7
f 46/46/7 47/47/7 48/48/7
s 1
f 49/49/8 42/42/5 44/44/6
s 0
f 46/46/7 48/48/7 163/49/7
f 162/44/7 46/46/7 163/49/7
f 50/50/3 51/51/3 52/52/3
f 52/52/3 53/53/3 54/54/3
f 54/54/3 55/55/3 50/50/3
f 52/52/3 54/54/3 50/50/3
f 56/56/4 57/57/4 58/58/4
f 56/56/4 58/58/4 59/59/4
s 1
f 60/60/9 61/61/3 62/62/3
f 60/60/9 62/62/3 63/63/3
s 0
f 34/34/1 1/1/1 33/33/1
s 1
f 34/34/1 33/33/1 64/64/1
s 0
f 1/1/1 4/4/1 12/12/1
f 1/1/1 12/12/1 10/10/1
s 1
f 65/65/4 66/66/4 67/67/10
f 65/65/4 67/67/10 68/68/4
s 0
f 58/58/4 65/65/4 68/68/4
f 58/58/4 68/68/4 59/59/4
f 3/3/1 32/32/1 5/5/1
f 3/3/1 5/5/1 1/1/1
f 69/69/7 70/70/7 71/71/7
f 69/69/7 71/71/7 72/72/7
f 70/70/7 73/73/7 74/74/7
f 70/70/7 74/74/7 71/71/7
s 1
f 75/75/11 76/76/7 69/69/7
f 75/75/11 69/69/7 72/72/7
s 0
f 77/77/1 2/2/1 1/1/1
f 77/77/1 1/1/1 35/35/1
f 78/78/3 79/79/3 80/80/3
f 78/78/3 80/80/3 81/81/3
f 62/62/3 78/78/3 81/81/3
f 62/62/3 81/81/3 63/63/3
s 1
f 82/82/6 83/83/6 84/84/12
f 82/82/6 84/84/12 85/85/6
s 0
f 86/86/6 82/82/6 85/85/6
f 86/86/6 85/85/6 87/87/6
s 1
f 88/88/13 89/89/14 90/90/3
f 88/88/13 90/90/3 91/91/3
f 92/91/6 93/20/6 94/92/15
f 92/91/6 94/92/15 95/88/16
s 0
f 96/93/2 97/14/2 98/94/2
f 96/93/2 98/94/2 99/95/2
f 100/96/1 161/90/1 8/8/1
s 1
f 100/96/1 8/8/1 7/7/1
f 95/88/16 94/92/15 101/97/17
f 95/88/16 101/97/17 102/98/17
f 103/98/18 104/9/18 89/89/14
f 103/98/18 89/89/14 88/88/13
f 105/99/5 106/100/6 86/86/6
f 105/99/5 86/86/6 87/87/6
s 0
f 107/95/2 108/101/2 109/102/2
f 107/95/2 109/102/2 110/93/2
f 111/103/18 112/104/18 113/105/18
f 111/103/18 113/105/18 114/106/18
f 11/11/1 10/10/1 33/33/1
s 1
f 11/11/1 33/33/1 115/107/1
f 116/108/6 117/105/6 118/104/6
f 116/108/6 118/104/6 119/109/6
f 120/106/17 121/13/17 122/110/5
f 120/106/17 122/110/5 123/103/19
s 0
f 124/111/20 125/112/20 126/113/20
f 124/111/20 126/113/20 127/114/20
f 128/115/2 129/16/2 130/18/2
f 128/115/2 130/18/2 131/116/2
f 20/20/1 19/19/1 132/117/1
f 20/20/1 132/117/1 133/97/1
f 134/118/21 135/111/21 136/114/21
f 134/118/21 136/114/21 137/119/21
f 138/120/7 139/28/7 140/121/7
f 138/120/7 140/121/7 141/122/7
s 1
f 142/123/21 143/124/21 144/125/22
f 142/123/21 144/125/22 145/126/23
f 146/112/24 147/120/11 148/122/7
f 146/112/24 148/122/7 149/113/7
f 150/127/4 151/128/4 152/129/25
f 150/127/4 152/129/25 153/130/26
s 0
f 154/116/2 155/29/2 156/131/2
f 154/116/2 156/131/2 157/115/2
f 31/31/1 5/5/1 4/4/1
f 31/31/1 4/4/1 158/132/1
s 1
f 153/130/26 152/129/25 159/133/20
f 153/130/26 159/133/20 160/134/20
