# Blender 4.1.1
# www.blender.org
g body.001_Mesh
v 0.120247 3.453942 0.209665
v 0.329268 3.506526 -0.030476
v 0.248890 3.473101 0.034184
v 0.031132 3.424460 0.304788
v 0.135115 3.605762 -0.030476
v 0.088020 3.592425 0.097537
v 0.115427 3.514397 0.178236
v 0.059567 3.542205 0.226519
v 0.168614 3.389521 0.175101
v 0.341245 3.375255 -0.026429
v 0.269924 3.334729 0.046213
v 0.170344 3.283296 0.142691
v 0.305123 3.286829 -0.037190
v 0.261979 3.246303 -0.000868
v 0.134067 3.194870 0.189153
v 0.238923 3.269886 -0.099112
v 0.195779 3.229360 -0.062438
v 0.054926 3.177927 0.009592
v 0.132251 3.554511 -0.123085
v 0.302198 3.507285 -0.087963
v 0.278992 3.376013 -0.112209
v 0.125411 3.451928 -0.175825
v 0.119462 3.305827 -0.169236
v 0.097890 3.265301 -0.096594
v 0.027463 3.213867 -0.024563
v -0.120247 3.453942 0.209665
v -0.329268 3.506526 -0.030476
v -0.248890 3.473101 0.034184
v -0.031132 3.424460 0.304788
v -0.135115 3.605762 -0.030476
v -0.088020 3.592425 0.097537
v -0.115427 3.514397 0.178236
v -0.059567 3.542205 0.226519
v -0.168614 3.389521 0.175101
v -0.341245 3.375255 -0.026429
v -0.269924 3.334729 0.046213
v -0.170344 3.283296 0.142691
v -0.305123 3.286829 -0.037190
v -0.261979 3.246303 -0.000868
v -0.134067 3.194870 0.189153
v -0.238923 3.269886 -0.099112
v -0.195779 3.229360 -0.062438
v -0.054926 3.177927 0.009592
v -0.132251 3.554511 -0.123085
v -0.302198 3.507285 -0.087963
v -0.278992 3.376013 -0.112209
v -0.125411 3.451928 -0.175825
v -0.119462 3.305827 -0.169236
v -0.097890 3.265301 -0.096594
v -0.027463 3.213867 -0.024563
v 0.000000 3.401726 0.336522
v 0.000000 3.725466 0.034810
v 0.000000 3.635379 0.151198
v 0.000000 3.560389 0.277388
v 0.000000 3.646985 -0.091794
v 0.000000 3.489326 -0.186884
v 0.000000 3.341768 -0.203391
v 0.000000 3.301241 -0.130749
v 0.000000 3.249808 -0.058719
vn 0.6343 0.4025 0.6600
vn 0.5601 0.8253 -0.0724
vn 0.6447 0.6597 0.3862
vn 0.7075 0.4915 0.5077
vn 0.6530 0.5207 0.5500
vn -0.0000 0.8341 0.5516
vn -0.0000 0.6231 0.7821
vn -0.0000 0.9948 0.1019
vn 0.6077 0.2929 0.7382
vn -0.0000 0.3492 0.9370
vn 0.7380 0.3321 0.5874
vn 0.7795 0.1413 0.6103
vn 0.7698 -0.1429 0.6221
vn 0.9878 -0.1081 0.1118
vn 0.8354 0.5020 0.2238
vn 0.8381 -0.5372 -0.0952
vn 0.7898 -0.1523 0.5941
vn 0.6610 -0.7342 0.1552
vn 0.4364 -0.6144 -0.6573
vn 0.1192 -0.9191 -0.3755
vn 0.2190 -0.8682 -0.4453
vn -0.0000 0.7610 -0.6488
vn 0.6388 0.4741 -0.6059
vn 0.3008 0.6275 -0.7182
vn -0.0000 0.3332 -0.9428
vn 0.2754 0.1880 -0.9428
vn 0.6103 -0.1194 -0.7831
vn 0.1604 -0.5391 -0.8268
vn -0.0000 -0.8491 -0.5283
vn -0.0000 -0.3883 -0.9216
vn -0.0691 -0.8054 -0.5887
vn -0.0000 -0.7766 -0.6299
vn -0.5601 0.8253 -0.0724
vn -0.6343 0.4025 0.6600
vn -0.6447 0.6597 0.3862
vn -0.7075 0.4915 0.5077
vn -0.6530 0.5207 0.5500
vn -0.6077 0.2929 0.7382
vn -0.7380 0.3321 0.5874
vn -0.7698 -0.1429 0.6221
vn -0.7795 0.1413 0.6103
vn -0.9878 -0.1081 0.1118
vn -0.8354 0.5020 0.2238
vn -0.8381 -0.5372 -0.0952
vn -0.6610 -0.7342 0.1552
vn -0.7898 -0.1523 0.5941
vn -0.4364 -0.6144 -0.6573
vn -0.1192 -0.9191 -0.3755
vn -0.6592 -0.7086 0.2519
vn -0.6388 0.4741 -0.6059
vn -0.3008 0.6275 -0.7182
vn -0.2754 0.1880 -0.9428
vn -0.6103 -0.1194 -0.7831
vn -0.1604 -0.5391 -0.8268
vn 0.0691 -0.8054 -0.5887
vn 0.1397 -0.7361 -0.6623
vn -0.2190 -0.8682 -0.4453
vn 0.6592 -0.7086 0.2519
vn -0.1397 -0.7361 -0.6623
vt 0.519984 0.520310
vt 0.667750 0.658317
vt 0.515013 0.767476
vt 0.361116 0.703852
vt 0.310947 0.812659
vt 0.482507 0.930621
vt 0.253216 0.923870
vt 0.713969 0.931735
vt 0.089513 0.773178
vt 0.017260 0.803022
vt 0.251319 0.683001
vt 0.290076 0.508339
vt 0.483011 0.398339
vt 0.564550 0.418881
vt 0.590465 0.485104
vt 0.556581 0.357597
vt 0.311172 0.332845
vt 0.520008 0.312233
vt 0.609593 0.312978
vt 0.536628 0.050867
vt 0.586897 0.256991
vt 0.866819 0.754376
vt 0.627038 0.477101
vt 0.753801 0.559003
vt 0.959097 0.480494
vt 0.787342 0.433785
vt 0.629235 0.395146
vt 0.740653 0.279534
vt 0.832763 0.133336
vt 0.916777 0.242951
vt 0.686736 0.195597
vt 0.714347 0.046494
vt 0.254571 0.190220
vt 0.624144 0.046494
s 1
f 3/1/1 5/2/2 6/3/3
f 7/4/4 6/3/3 8/5/5
f 8/5/5 53/6/6 54/7/7
f 6/3/3 52/8/8 53/6/6
f 4/9/9 54/7/7 51/10/10
f 1/11/11 8/5/5 4/9/9
f 9/12/12 11/13/13 3/1/1
f 7/4/4 9/12/12 3/1/1
f 3/1/1 10/14/14 2/15/15
f 11/13/13 13/16/16 10/14/14
f 12/17/17 14/18/18 11/13/13
f 14/18/18 16/19/19 13/16/16
f 14/18/18 18/20/20 17/21/21
f 5/2/2 55/22/22 52/8/8
f 10/14/14 20/23/23 2/15/15
f 20/23/23 5/2/2 2/15/15
f 19/24/24 56/25/25 55/22/22
f 22/26/26 20/23/23 21/27/27
f 23/28/28 58/29/29 57/30/30
f 24/31/31 59/32/32 58/29/29
f 13/16/16 21/27/27 10/14/14
f 18/20/20 24/31/31 17/21/21
f 16/19/19 24/31/31 23/28/28
f 21/27/27 23/28/28 22/26/26
f 22/26/26 57/30/30 56/25/25
f 30/2/33 28/1/34 31/3/35
f 31/3/35 32/4/36 33/5/37
f 53/6/6 33/5/37 54/7/7
f 52/8/8 31/3/35 53/6/6
f 54/7/7 29/9/38 51/10/10
f 33/5/37 26/11/39 29/9/38
f 36/13/40 34/12/41 28/1/34
f 34/12/41 32/4/36 28/1/34
f 35/14/42 28/1/34 27/15/43
f 38/16/44 36/13/40 35/14/42
f 39/18/45 37/17/46 36/13/40
f 41/19/47 39/18/45 38/16/44
f 39/18/45 43/20/48 40/33/49
f 55/22/22 30/2/33 52/8/8
f 45/23/50 35/14/42 27/15/43
f 30/2/33 45/23/50 27/15/43
f 56/25/25 44/24/51 55/22/22
f 45/23/50 47/26/52 46/27/53
f 48/28/54 58/29/29 49/31/55
f 49/31/55 59/32/32 50/34/56
f 46/27/53 38/16/44 35/14/42
f 49/31/55 43/20/48 42/21/57
f 41/19/47 49/31/55 42/21/57
f 46/27/53 48/28/54 41/19/47
f 47/26/52 57/30/30 48/28/54
f 3/1/1 2/15/15 5/2/2
f 7/4/4 3/1/1 6/3/3
f 8/5/5 6/3/3 53/6/6
f 6/3/3 5/2/2 52/8/8
f 4/9/9 8/5/5 54/7/7
f 1/11/11 7/4/4 8/5/5
f 9/12/12 12/17/17 11/13/13
f 7/4/4 1/11/11 9/12/12
f 3/1/1 11/13/13 10/14/14
f 11/13/13 14/18/18 13/16/16
f 12/17/17 15/33/58 14/18/18
f 14/18/18 17/21/21 16/19/19
f 14/18/18 15/33/58 18/20/20
f 5/2/2 19/24/24 55/22/22
f 10/14/14 21/27/27 20/23/23
f 20/23/23 19/24/24 5/2/2
f 19/24/24 22/26/26 56/25/25
f 22/26/26 19/24/24 20/23/23
f 23/28/28 24/31/31 58/29/29
f 24/31/31 25/34/59 59/32/32
f 13/16/16 16/19/19 21/27/27
f 18/20/20 25/34/59 24/31/31
f 16/19/19 17/21/21 24/31/31
f 21/27/27 16/19/19 23/28/28
f 22/26/26 23/28/28 57/30/30
f 30/2/33 27/15/43 28/1/34
f 31/3/35 28/1/34 32/4/36
f 53/6/6 31/3/35 33/5/37
f 52/8/8 30/2/33 31/3/35
f 54/7/7 33/5/37 29/9/38
f 33/5/37 32/4/36 26/11/39
f 36/13/40 37/17/46 34/12/41
f 34/12/41 26/11/39 32/4/36
f 35/14/42 36/13/40 28/1/34
f 38/16/44 39/18/45 36/13/40
f 39/18/45 40/33/49 37/17/46
f 41/19/47 42/21/57 39/18/45
f 39/18/45 42/21/57 43/20/48
f 55/22/22 44/24/51 30/2/33
f 45/23/50 46/27/53 35/14/42
f 30/2/33 44/24/51 45/23/50
f 56/25/25 47/26/52 44/24/51
f 45/23/50 44/24/51 47/26/52
f 48/28/54 57/30/30 58/29/29
f 49/31/55 58/29/29 59/32/32
f 46/27/53 41/19/47 38/16/44
f 49/31/55 50/34/56 43/20/48
f 41/19/47 48/28/54 49/31/55
f 46/27/53 47/26/52 48/28/54
f 47/26/52 56/25/25 57/30/30
