# Blender 4.3.2
# www.blender.org
o banner.007_red_strip_0
v -19.345688 -16.675352 0.165840
v 19.187923 -16.675352 0.165840
v 19.187923 16.717335 0.165840
v -19.345688 16.717335 0.165840
v -19.345688 -16.675352 0.094772
v -19.345688 16.717335 0.094772
v 19.187923 16.717335 0.094772
v 19.187923 -16.675352 0.094772
v -19.345688 -16.675352 0.165840
v -19.345688 16.717335 0.165840
v -19.345688 16.717335 0.094772
v -19.345688 -16.675352 0.094772
v 19.187923 -16.675352 0.165840
v -19.345688 -16.675352 0.165840
v -19.345688 -16.675352 0.094772
v 19.187923 -16.675352 0.094772
v 19.187923 16.717335 0.165840
v 19.187923 -16.675352 0.165840
v 19.187923 -16.675352 0.094772
v 19.187923 16.717335 0.094772
v -19.345688 16.717335 0.165840
v 19.187923 16.717335 0.165840
v 19.187923 16.717335 0.094772
v -19.345688 16.717335 0.094772
vn -0.0000 -0.0000 1.0000
vn -0.0000 -0.0000 -1.0000
vn -1.0000 -0.0000 -0.0000
vn -0.0000 -1.0000 -0.0000
vn 1.0000 -0.0000 -0.0000
vn -0.0000 1.0000 -0.0000
vt 0.933293 0.066707
vt -0.066707 0.066707
vt -0.066707 0.933293
vt 0.933293 0.933293
s 0
f 1/1/1 2/2/1 3/3/1
f 1/1/1 3/3/1 4/4/1
f 5/1/2 6/4/2 7/3/2
f 5/1/2 7/3/2 8/2/2
f 9/1/3 10/4/3 11/4/3
f 9/1/3 11/4/3 12/1/3
f 13/2/4 14/1/4 15/1/4
f 13/2/4 15/1/4 16/2/4
f 17/3/5 18/2/5 19/2/5
f 17/3/5 19/2/5 20/3/5
f 21/4/6 22/3/6 23/3/6
f 21/4/6 23/3/6 24/4/6
