# Blender 4.1.1
# www.blender.org
mtllib ring_toss_table.mtl
o Cube
v 4.314979 2.619965 -2.217336
v 4.314979 2.364204 -2.217336
v 4.314979 2.619965 2.217336
v 4.314979 2.364204 2.217336
v -4.314979 2.619965 -2.217336
v -4.314979 2.364204 -2.217336
v -4.314979 2.619965 2.217336
v -4.314979 2.364204 2.217336
v 3.835537 2.364204 -2.217336
v 3.356095 2.364204 -2.217336
v -3.356095 2.364204 -2.217336
v -3.835537 2.364204 -2.217336
v -3.835537 2.364204 2.217336
v -3.356095 2.364204 2.217336
v 3.356095 2.364204 2.217336
v 3.835537 2.364204 2.217336
v -4.314979 2.364204 -1.583811
v -4.314979 2.364204 -0.950287
v -4.314979 2.364204 -0.316762
v -4.314979 2.364204 0.316762
v -4.314979 2.364204 0.950287
v -4.314979 2.364204 1.583811
v 3.835537 0.064204 1.583811
v 3.835537 0.064204 0.950287
v 3.356095 0.064204 1.583811
v 3.356095 0.064204 0.950287
v -3.356095 0.064204 -0.950287
v -3.356095 0.064204 -1.583811
v -3.835537 0.064204 -0.950287
v -3.835537 0.064204 -1.583811
v -3.356095 0.064204 1.583811
v -3.356095 0.064204 0.950287
v -3.835537 0.064204 1.583811
v -3.835537 0.064204 0.950287
v 4.314979 2.364204 1.583811
v 4.314979 2.364204 0.950287
v 4.314979 2.364204 0.316762
v 4.314979 2.364204 -0.316762
v 4.314979 2.364204 -0.950287
v 4.314979 2.364204 -1.583811
v -3.835537 2.364204 -1.583811
v -3.835537 2.364204 -0.950287
v -3.835537 2.364204 -0.316762
v -3.835537 2.364204 0.316762
v -3.835537 2.364204 0.950287
v -3.835537 2.364204 1.583811
v -3.356095 2.364204 -1.583811
v -3.356095 2.364204 -0.950287
v -3.356095 2.364204 -0.316762
v -3.356095 2.364204 0.316762
v -3.356095 2.364204 0.950287
v -3.356095 2.364204 1.583811
v 3.356095 2.364204 -1.583811
v 3.356095 2.364204 -0.950287
v 3.356095 2.364204 -0.316762
v 3.356095 2.364204 0.316762
v 3.356095 2.364204 0.950287
v 3.356095 2.364204 1.583811
v 3.835537 2.364204 -1.583811
v 3.835537 2.364204 -0.950287
v 3.835537 2.364204 -0.316762
v 3.835537 2.364204 0.316762
v 3.835537 2.364204 0.950287
v 3.835537 2.364204 1.583811
v 3.356095 2.364204 -1.583811
v 3.356095 2.364204 -0.950287
v 3.835537 2.364204 -1.583811
v 3.835537 2.364204 -0.950287
v 3.835537 0.064204 -0.950287
v 3.356095 0.064204 -0.950287
v 3.835537 0.064204 -1.583811
v 3.356095 0.064204 -1.583811
vn 1.0000 -0.0000 -0.0000
vn -0.0000 -1.0000 -0.0000
vn -0.0000 -0.0000 -1.0000
vn -0.0000 -0.0000 1.0000
vn -0.0000 1.0000 -0.0000
vn -1.0000 -0.0000 -0.0000
vn -0.0941 -0.9956 -0.0000
vn 0.0941 -0.9956 -0.0000
vt 0.760509 0.643328
vt 0.760509 0.571664
vt 0.760516 0.184927
vt 0.750305 0.211182
vt 0.750305 0.184927
vt 0.777443 0.656537
vt 0.749574 0.656537
vt 0.750825 0.500000
vt 0.249175 0.054090
vt 0.249175 0.026220
vt 0.729682 0.166622
vt 0.737045 0.185555
vt 0.729682 0.185555
vt 0.737045 0.166622
vt 0.744408 0.185555
vt 0.735101 0.622086
vt 0.762970 0.693750
vt 0.735101 0.693750
vt 0.740095 0.184927
vt 0.740095 0.211182
vt 0.750825 1.503299
vt 0.249175 1.057388
vt 0.249175 1.029519
vt 0.757757 0.571664
vt 0.729887 0.571664
vt 0.729887 0.643328
vt 0.757757 0.643328
vt -0.016279 -0.009888
vt 0.990861 0.997252
vt -0.016279 0.997252
vt 0.750305 0.027394
vt 0.740095 0.053649
vt 0.740095 0.027394
vt 0.221306 0.571664
vt 0.221306 0.643328
vt 0.750305 0.079905
vt 0.740095 0.106160
vt 0.740095 0.079905
vt 0.750305 0.106160
vt 0.740095 0.132416
vt 0.750305 0.132416
vt 0.740095 0.158671
vt 0.765499 0.640611
vt 0.757536 0.720238
vt 0.732640 0.571664
vt 0.732640 0.643328
vt 0.762970 0.622086
vt 0.770254 0.120555
vt 0.731231 0.135858
vt 0.731231 0.122085
vt 0.744408 0.053021
vt 0.737045 0.071954
vt 0.737045 0.053021
vt 0.744408 0.090888
vt 0.737045 0.109821
vt 0.737045 0.090888
vt 0.744408 0.109821
vt 0.737045 0.128755
vt 0.744408 0.128755
vt 0.737045 0.147688
vt 0.729682 0.071954
vt 0.729682 0.053021
vt 0.729682 0.090888
vt 0.729682 0.109821
vt 0.729682 0.128755
vt 0.729682 0.147688
vt 0.193437 0.643328
vt 0.233250 0.603515
vt 0.241213 0.523888
vt 0.193437 0.571664
vt 0.740234 0.000867
vt 0.249883 0.362275
vt 0.248827 0.291471
vt 0.760516 0.027394
vt 0.750305 0.053649
vt 0.760516 0.053649
vt 0.760516 0.079905
vt 0.760516 0.106160
vt 0.760516 0.132416
vt 0.750305 0.158671
vt 0.175352 0.858321
vt 0.147482 0.929985
vt 0.147482 0.858321
vt 0.777663 0.523888
vt 0.769701 0.603515
vt 0.777443 0.728201
vt 0.749574 0.728201
vt 0.193437 0.858321
vt 0.221306 0.929985
vt 0.193437 0.929985
vt 0.750825 -0.503299
vt 0.249175 -0.144978
vt 0.249175 -0.216642
vt 0.760516 0.211182
vt 0.249175 -0.001649
vt 0.750825 -0.001649
vt 0.249175 0.500000
vt 0.249175 0.472131
vt 0.249175 0.444261
vt 0.744408 0.166622
vt 0.249175 1.001649
vt 0.750825 1.001649
vt 0.249175 1.503299
vt 0.249175 1.475429
vt 0.249175 1.447560
vt 0.990861 -0.009888
vt 0.731231 0.087653
vt 0.774080 0.082297
vt 0.773314 0.089949
vt 0.772549 0.097600
vt 0.731231 0.094540
vt 0.771784 0.105252
vt 0.731231 0.101426
vt 0.771019 0.112903
vt 0.731231 0.108312
vt 0.769489 0.128206
vt 0.768723 0.135858
vt 0.731231 0.115199
vt 0.731231 0.128971
vt 0.744408 0.071954
vt 0.744408 0.147688
vt 0.245661 0.079059
vt 0.244606 0.008255
vt 0.747622 0.496495
vt 0.251994 0.503883
vt 0.250938 0.433079
vt 0.246717 0.149863
vt 0.247772 0.220667
vt 0.760516 0.158671
vt 0.175352 0.929985
vt 0.221306 0.858321
vt 0.249175 -0.431634
vt 0.249175 -0.503299
vt 0.249175 -0.073313
vt 0.249175 -0.359970
vt 0.249175 -0.288306
s 0
usemtl Material
f 48/1/1 28/2/1 47/2/1
f 35/3/2 16/4/2 64/5/2
f 63/6/3 26/7/3 57/7/3
f 1/8/3 11/9/3 12/10/3
f 22/11/2 13/12/2 8/13/2
f 46/14/2 14/15/2 13/12/2
f 34/16/2 31/17/2 33/18/2
f 58/19/2 16/4/2 15/20/2
f 7/21/4 15/22/4 16/23/4
f 67/24/3 72/25/3 65/25/3
f 66/26/4 69/27/4 68/27/4
f 5/28/5 3/29/5 1/30/5
f 9/31/2 53/32/2 10/33/2
f 59/34/5 68/35/5 67/34/5
f 60/36/2 55/37/2 54/38/2
f 61/39/2 56/40/2 55/37/2
f 62/41/2 57/42/2 56/40/2
f 57/43/6 25/44/6 58/44/6
f 41/45/6 29/46/6 42/46/6
f 28/2/2 29/46/2 30/45/2
f 46/18/4 31/17/4 52/17/4
f 45/16/6 33/18/6 46/18/6
f 52/17/1 32/47/1 51/47/1
f 57/48/2 14/49/2 51/50/2
f 11/51/2 41/52/2 12/53/2
f 47/2/3 30/45/3 41/45/3
f 48/54/2 43/55/2 42/56/2
f 49/57/2 44/58/2 43/55/2
f 50/59/2 45/60/2 44/58/2
f 51/47/3 34/16/3 45/16/3
f 12/53/2 17/61/2 6/62/2
f 41/52/2 18/63/2 17/61/2
f 42/56/2 19/64/2 18/63/2
f 43/55/2 20/65/2 19/64/2
f 44/58/2 21/66/2 20/65/2
f 45/60/2 22/11/2 21/66/2
f 68/27/1 71/24/1 67/24/1
f 71/24/2 70/26/2 72/25/2
f 60/35/5 66/67/5 68/35/5
f 54/68/5 65/69/5 66/68/5
f 53/70/5 67/34/5 65/70/5
f 1/71/1 36/72/1 37/73/1
f 2/74/2 59/75/2 9/31/2
f 40/76/2 60/36/2 59/75/2
f 39/77/2 61/39/2 60/36/2
f 38/78/2 62/41/2 61/39/2
f 37/79/2 63/80/2 62/41/2
f 36/81/2 64/82/2 63/83/2
f 65/84/6 70/85/6 66/85/6
f 64/86/1 24/6/1 63/6/1
f 58/87/4 23/86/4 64/86/4
f 26/88/2 23/89/2 25/90/2
f 42/46/4 27/1/4 48/1/4
f 7/91/6 18/92/6 19/93/6
f 48/1/1 27/1/1 28/2/1
f 35/3/2 4/94/2 16/4/2
f 63/6/3 24/6/3 26/7/3
f 6/95/3 5/96/3 1/8/3
f 1/8/3 2/97/3 9/98/3
f 1/8/3 9/98/3 10/99/3
f 12/10/3 6/95/3 1/8/3
f 1/8/3 10/99/3 11/9/3
f 22/11/2 46/14/2 13/12/2
f 46/14/2 52/100/2 14/15/2
f 34/16/2 32/47/2 31/17/2
f 58/19/2 64/5/2 16/4/2
f 4/101/4 3/102/4 7/21/4
f 7/21/4 8/103/4 13/104/4
f 7/21/4 13/104/4 14/105/4
f 16/23/4 4/101/4 7/21/4
f 7/21/4 14/105/4 15/22/4
f 67/24/3 71/24/3 72/25/3
f 66/26/4 70/26/4 69/27/4
f 5/28/5 7/106/5 3/29/5
f 9/31/2 59/75/2 53/32/2
f 59/34/5 60/35/5 68/35/5
f 60/36/2 61/39/2 55/37/2
f 61/39/2 62/41/2 56/40/2
f 62/41/2 63/80/2 57/42/2
f 57/43/6 26/43/6 25/44/6
f 41/45/6 30/45/6 29/46/6
f 28/2/2 27/1/2 29/46/2
f 46/18/4 33/18/4 31/17/4
f 45/16/6 34/16/6 33/18/6
f 52/17/1 31/17/1 32/47/1
f 11/107/2 10/108/2 53/109/2
f 11/107/2 53/109/2 54/110/2
f 47/111/2 11/107/2 54/110/2
f 47/111/2 54/110/2 55/112/2
f 48/113/2 47/111/2 55/112/2
f 48/113/2 55/112/2 56/114/2
f 49/115/2 48/113/2 56/114/2
f 57/48/7 58/116/7 15/117/7
f 49/115/2 56/114/2 57/48/2
f 50/118/2 49/115/2 57/48/2
f 57/48/2 15/117/2 14/49/2
f 14/49/8 52/119/8 51/50/8
f 51/50/2 50/118/2 57/48/2
f 11/51/2 47/120/2 41/52/2
f 47/2/3 28/2/3 30/45/3
f 48/54/2 49/57/2 43/55/2
f 49/57/2 50/59/2 44/58/2
f 50/59/2 51/121/2 45/60/2
f 51/47/3 32/47/3 34/16/3
f 12/53/2 41/52/2 17/61/2
f 41/52/2 42/56/2 18/63/2
f 42/56/2 43/55/2 19/64/2
f 43/55/2 44/58/2 20/65/2
f 44/58/2 45/60/2 21/66/2
f 45/60/2 46/14/2 22/11/2
f 68/27/1 69/27/1 71/24/1
f 71/24/2 69/27/2 70/26/2
f 60/35/5 54/67/5 66/67/5
f 54/68/5 53/69/5 65/69/5
f 53/70/5 59/34/5 67/34/5
f 40/122/1 2/123/1 1/71/1
f 1/71/1 3/124/1 4/125/1
f 1/71/1 4/125/1 35/126/1
f 39/127/1 40/122/1 1/71/1
f 38/128/1 39/127/1 1/71/1
f 1/71/1 35/126/1 36/72/1
f 37/73/1 38/128/1 1/71/1
f 2/74/2 40/76/2 59/75/2
f 40/76/2 39/77/2 60/36/2
f 39/77/2 38/78/2 61/39/2
f 38/78/2 37/79/2 62/41/2
f 37/79/2 36/129/2 63/80/2
f 36/81/2 35/130/2 64/82/2
f 65/84/6 72/84/6 70/85/6
f 64/86/1 23/86/1 24/6/1
f 58/87/4 25/87/4 23/86/4
f 26/88/2 24/131/2 23/89/2
f 42/46/4 29/46/4 27/1/4
f 22/132/6 8/133/6 7/91/6
f 7/91/6 5/96/6 6/95/6
f 7/91/6 6/95/6 17/134/6
f 21/135/6 22/132/6 7/91/6
f 20/136/6 21/135/6 7/91/6
f 7/91/6 17/134/6 18/92/6
f 19/93/6 20/136/6 7/91/6
