# Blender 4.1.1
# www.blender.org
o Plane
v -4.303798 1.861317 2.220246
v -4.303798 1.827496 -2.226153
v 4.351973 1.861317 2.220246
v 4.351973 1.827496 -2.226153
v -4.361323 1.969136 -2.212307
v 4.409906 1.993222 -2.212307
v -4.367806 2.693486 -2.226153
v 4.416389 2.669398 -2.226153
v -4.361323 1.969136 2.240492
v -4.373441 2.693486 2.220246
v 4.422025 2.669398 2.220246
v 4.409906 1.993222 2.240492
vn -0.0000 -0.0000 1.0000
vn -0.0000 -0.0000 -1.0000
vn 0.9998 -0.0179 -0.0000
vn 0.0027 1.0000 -0.0000
vn -1.0000 -0.0090 -0.0013
vn 1.0000 -0.0096 -0.0013
vn -0.9999 -0.0167 -0.0000
vt 0.126585 0.927971
vt 0.000000 0.067239
vt 0.126585 0.067239
vt 1.000000 0.927970
vt 0.868718 0.067239
vt 1.000000 0.067239
vt 0.868718 0.000000
vt 0.126585 0.000000
vt 0.868718 1.000000
vt 0.868718 0.927970
vt 0.000000 0.927971
vt 0.126585 1.000000
s 0
f 10/1/1 3/2/1 11/3/1
f 2/4/2 8/5/2 4/6/2
f 6/7/3 11/3/3 12/8/3
f 8/5/4 10/1/4 11/3/4
f 5/9/5 10/1/5 7/10/5
f 10/1/1 1/11/1 3/2/1
f 2/4/2 7/10/2 8/5/2
f 6/7/6 8/5/6 11/3/6
f 8/5/4 7/10/4 10/1/4
f 5/9/7 9/12/7 10/1/7
