# Blender 4.3.2
# www.blender.org
mtllib stripedwall2.mtl
o Cube
v -0.472967 1.154114 -7.033702
v -0.472967 -0.354101 -7.033702
v -0.472967 1.154115 7.071593
v -0.472967 -0.354100 7.071593
v 0.482020 1.154114 -7.033702
v 0.482020 -0.354101 -7.033702
v 0.482020 1.154115 7.071593
v 0.482020 -0.354100 7.071593
vn -1.0000 -0.0000 -0.0000
vn -0.0000 -0.0000 1.0000
vn 1.0000 -0.0000 -0.0000
vn -0.0000 -0.0000 -1.0000
vn -0.0000 1.0000 -0.0000
vn -0.0000 -1.0000 -0.0000
vt 0.625000 0.000000
vt 0.375000 0.250000
vt 0.375000 0.000000
vt 0.625000 0.250000
vt 0.375000 0.500000
vt 0.625000 0.500000
vt 0.375000 0.750000
vt 0.625000 0.750000
vt 0.375000 1.000000
vt 0.125000 0.750000
vt 0.125000 0.500000
vt 0.875000 0.500000
vt 0.625000 1.000000
vt 0.875000 0.750000
s 0
usemtl Material.002
f 2/1/1 3/2/1 1/3/1
f 4/4/2 7/5/2 3/2/2
f 8/6/3 5/7/3 7/5/3
f 6/8/4 1/9/4 5/7/4
f 7/5/5 1/10/5 3/11/5
f 4/12/6 6/8/6 8/6/6
f 2/1/1 4/4/1 3/2/1
f 4/4/2 8/6/2 7/5/2
f 8/6/3 6/8/3 5/7/3
f 6/8/4 2/13/4 1/9/4
f 7/5/5 5/7/5 1/10/5
f 4/12/6 2/14/6 6/8/6
o Cube.002
v -0.483163 -0.302769 -5.868145
v -0.488137 1.149203 -5.868145
v -0.483163 -0.302769 -6.849139
v -0.488137 1.149203 -6.849139
v 0.427607 -0.299649 -5.868145
v 0.422633 1.152323 -5.868145
v 0.427607 -0.299649 -6.849139
v 0.422633 1.152323 -6.849139
vn -1.0000 -0.0034 -0.0000
vn -0.0000 -0.0000 -1.0000
vn 1.0000 0.0034 -0.0000
vn -0.0000 -0.0000 1.0000
vn 0.0034 -1.0000 -0.0000
vn -0.0034 1.0000 -0.0000
vt 0.625000 0.000000
vt 0.375000 0.250000
vt 0.375000 0.000000
vt 0.625000 0.250000
vt 0.375000 0.500000
vt 0.625000 0.500000
vt 0.375000 0.750000
vt 0.625000 0.750000
vt 0.375000 1.000000
vt 0.125000 0.750000
vt 0.125000 0.500000
vt 0.875000 0.500000
vt 0.625000 1.000000
vt 0.875000 0.750000
s 0
usemtl Material.003
f 10/15/7 11/16/7 9/17/7
f 12/18/8 15/19/8 11/16/8
f 16/20/9 13/21/9 15/19/9
f 14/22/10 9/23/10 13/21/10
f 15/19/11 9/24/11 11/25/11
f 12/26/12 14/22/12 16/20/12
f 10/15/7 12/18/7 11/16/7
f 12/18/8 16/20/8 15/19/8
f 16/20/9 14/22/9 13/21/9
f 14/22/10 10/27/10 9/23/10
f 15/19/11 13/21/11 9/24/11
f 12/26/12 10/28/12 14/22/12
o Cube.003
v -0.489694 -0.327794 -4.040167
v -0.494668 1.124178 -4.040167
v -0.489694 -0.327794 -5.021161
v -0.494668 1.124178 -5.021161
v 0.421076 -0.324674 -4.040167
v 0.416102 1.127298 -4.040167
v 0.421076 -0.324674 -5.021161
v 0.416102 1.127298 -5.021161
vn -1.0000 -0.0034 -0.0000
vn -0.0000 -0.0000 -1.0000
vn 1.0000 0.0034 -0.0000
vn -0.0000 -0.0000 1.0000
vn 0.0034 -1.0000 -0.0000
vn -0.0034 1.0000 -0.0000
vt 0.625000 0.000000
vt 0.375000 0.250000
vt 0.375000 0.000000
vt 0.625000 0.250000
vt 0.375000 0.500000
vt 0.625000 0.500000
vt 0.375000 0.750000
vt 0.625000 0.750000
vt 0.375000 1.000000
vt 0.125000 0.750000
vt 0.125000 0.500000
vt 0.875000 0.500000
vt 0.625000 1.000000
vt 0.875000 0.750000
s 0
usemtl Material.004
f 18/29/13 19/30/13 17/31/13
f 20/32/14 23/33/14 19/30/14
f 24/34/15 21/35/15 23/33/15
f 22/36/16 17/37/16 21/35/16
f 23/33/17 17/38/17 19/39/17
f 20/40/18 22/36/18 24/34/18
f 18/29/13 20/32/13 19/30/13
f 20/32/14 24/34/14 23/33/14
f 24/34/15 22/36/15 21/35/15
f 22/36/16 18/41/16 17/37/16
f 23/33/17 21/35/17 17/38/17
f 20/40/18 18/42/18 22/36/18
o Cube.004
v -0.482285 -0.332044 -2.196403
v -0.487259 1.119928 -2.196403
v -0.482285 -0.332044 -3.177396
v -0.487259 1.119928 -3.177396
v 0.428485 -0.328924 -2.196403
v 0.423511 1.123049 -2.196403
v 0.428485 -0.328924 -3.177396
v 0.423511 1.123049 -3.177396
vn -1.0000 -0.0034 -0.0000
vn -0.0000 -0.0000 -1.0000
vn 1.0000 0.0034 -0.0000
vn -0.0000 -0.0000 1.0000
vn 0.0034 -1.0000 -0.0000
vn -0.0034 1.0000 -0.0000
vt 0.625000 0.000000
vt 0.375000 0.250000
vt 0.375000 0.000000
vt 0.625000 0.250000
vt 0.375000 0.500000
vt 0.625000 0.500000
vt 0.375000 0.750000
vt 0.625000 0.750000
vt 0.375000 1.000000
vt 0.125000 0.750000
vt 0.125000 0.500000
vt 0.875000 0.500000
vt 0.625000 1.000000
vt 0.875000 0.750000
s 0
usemtl Material.005
f 26/43/19 27/44/19 25/45/19
f 28/46/20 31/47/20 27/44/20
f 32/48/21 29/49/21 31/47/21
f 30/50/22 25/51/22 29/49/22
f 31/47/23 25/52/23 27/53/23
f 28/54/24 30/50/24 32/48/24
f 26/43/19 28/46/19 27/44/19
f 28/46/20 32/48/20 31/47/20
f 32/48/21 30/50/21 29/49/21
f 30/50/22 26/55/22 25/51/22
f 31/47/23 29/49/23 25/52/23
f 28/54/24 26/56/24 30/50/24
o Cube.005
v -0.487114 -0.346258 -0.379621
v -0.492088 1.105715 -0.379621
v -0.487114 -0.346258 -1.360614
v -0.492088 1.105715 -1.360614
v 0.423656 -0.343138 -0.379621
v 0.418682 1.108835 -0.379621
v 0.423656 -0.343138 -1.360614
v 0.418682 1.108835 -1.360614
vn -1.0000 -0.0034 -0.0000
vn -0.0000 -0.0000 -1.0000
vn 1.0000 0.0034 -0.0000
vn -0.0000 -0.0000 1.0000
vn 0.0034 -1.0000 -0.0000
vn -0.0034 1.0000 -0.0000
vt 0.625000 0.000000
vt 0.375000 0.250000
vt 0.375000 0.000000
vt 0.625000 0.250000
vt 0.375000 0.500000
vt 0.625000 0.500000
vt 0.375000 0.750000
vt 0.625000 0.750000
vt 0.375000 1.000000
vt 0.125000 0.750000
vt 0.125000 0.500000
vt 0.875000 0.500000
vt 0.625000 1.000000
vt 0.875000 0.750000
s 0
usemtl Material.006
f 34/57/25 35/58/25 33/59/25
f 36/60/26 39/61/26 35/58/26
f 40/62/27 37/63/27 39/61/27
f 38/64/28 33/65/28 37/63/28
f 39/61/29 33/66/29 35/67/29
f 36/68/30 38/64/30 40/62/30
f 34/57/25 36/60/25 35/58/25
f 36/60/26 40/62/26 39/61/26
f 40/62/27 38/64/27 37/63/27
f 38/64/28 34/69/28 33/65/28
f 39/61/29 37/63/29 33/66/29
f 36/68/30 34/70/30 38/64/30
o Cube.007
v -0.476757 -0.350963 1.435832
v -0.481731 1.101009 1.435832
v -0.476757 -0.350963 0.454838
v -0.481731 1.101009 0.454838
v 0.434013 -0.347843 1.435832
v 0.429039 1.104129 1.435832
v 0.434013 -0.347843 0.454838
v 0.429039 1.104129 0.454838
vn -1.0000 -0.0034 -0.0000
vn -0.0000 -0.0000 -1.0000
vn 1.0000 0.0034 -0.0000
vn -0.0000 -0.0000 1.0000
vn 0.0034 -1.0000 -0.0000
vn -0.0034 1.0000 -0.0000
vt 0.625000 0.000000
vt 0.375000 0.250000
vt 0.375000 0.000000
vt 0.625000 0.250000
vt 0.375000 0.500000
vt 0.625000 0.500000
vt 0.375000 0.750000
vt 0.625000 0.750000
vt 0.375000 1.000000
vt 0.125000 0.750000
vt 0.125000 0.500000
vt 0.875000 0.500000
vt 0.625000 1.000000
vt 0.875000 0.750000
s 0
usemtl Material.008
f 42/71/31 43/72/31 41/73/31
f 44/74/32 47/75/32 43/72/32
f 48/76/33 45/77/33 47/75/33
f 46/78/34 41/79/34 45/77/34
f 47/75/35 41/80/35 43/81/35
f 44/82/36 46/78/36 48/76/36
f 42/71/31 44/74/31 43/72/31
f 44/74/32 48/76/32 47/75/32
f 48/76/33 46/78/33 45/77/33
f 46/78/34 42/83/34 41/79/34
f 47/75/35 45/77/35 41/80/35
f 44/82/36 42/84/36 46/78/36
o Cube.008
v -0.481833 -0.337071 3.210708
v -0.486807 1.114901 3.210708
v -0.481833 -0.337071 2.229714
v -0.486807 1.114901 2.229714
v 0.428937 -0.333951 3.210708
v 0.423963 1.118021 3.210708
v 0.428937 -0.333951 2.229714
v 0.423963 1.118021 2.229714
vn -1.0000 -0.0034 -0.0000
vn -0.0000 -0.0000 -1.0000
vn 1.0000 0.0034 -0.0000
vn -0.0000 -0.0000 1.0000
vn 0.0034 -1.0000 -0.0000
vn -0.0034 1.0000 -0.0000
vt 0.625000 0.000000
vt 0.375000 0.250000
vt 0.375000 0.000000
vt 0.625000 0.250000
vt 0.375000 0.500000
vt 0.625000 0.500000
vt 0.375000 0.750000
vt 0.625000 0.750000
vt 0.375000 1.000000
vt 0.125000 0.750000
vt 0.125000 0.500000
vt 0.875000 0.500000
vt 0.625000 1.000000
vt 0.875000 0.750000
s 0
usemtl Material.009
f 50/85/37 51/86/37 49/87/37
f 52/88/38 55/89/38 51/86/38
f 56/90/39 53/91/39 55/89/39
f 54/92/40 49/93/40 53/91/40
f 55/89/41 49/94/41 51/95/41
f 52/96/42 54/92/42 56/90/42
f 50/85/37 52/88/37 51/86/37
f 52/88/38 56/90/38 55/89/38
f 56/90/39 54/92/39 53/91/39
f 54/92/40 50/97/40 49/93/40
f 55/89/41 53/91/41 49/94/41
f 52/96/42 50/98/42 54/92/42
o Cube.009
v -0.486988 -0.337071 5.023803
v -0.491962 1.114901 5.023803
v -0.486988 -0.337071 4.042810
v -0.491962 1.114901 4.042810
v 0.423782 -0.333951 5.023803
v 0.418808 1.118021 5.023803
v 0.423782 -0.333951 4.042810
v 0.418808 1.118021 4.042810
vn -1.0000 -0.0034 -0.0000
vn -0.0000 -0.0000 -1.0000
vn 1.0000 0.0034 -0.0000
vn -0.0000 -0.0000 1.0000
vn 0.0034 -1.0000 -0.0000
vn -0.0034 1.0000 -0.0000
vt 0.625000 0.000000
vt 0.375000 0.250000
vt 0.375000 0.000000
vt 0.625000 0.250000
vt 0.375000 0.500000
vt 0.625000 0.500000
vt 0.375000 0.750000
vt 0.625000 0.750000
vt 0.375000 1.000000
vt 0.125000 0.750000
vt 0.125000 0.500000
vt 0.875000 0.500000
vt 0.625000 1.000000
vt 0.875000 0.750000
s 0
usemtl Material.010
f 58/99/43 59/100/43 57/101/43
f 60/102/44 63/103/44 59/100/44
f 64/104/45 61/105/45 63/103/45
f 62/106/46 57/107/46 61/105/46
f 63/103/47 57/108/47 59/109/47
f 60/110/48 62/106/48 64/104/48
f 58/99/43 60/102/43 59/100/43
f 60/102/44 64/104/44 63/103/44
f 64/104/45 62/106/45 61/105/45
f 62/106/46 58/111/46 57/107/46
f 63/103/47 61/105/47 57/108/47
f 60/110/48 58/112/48 62/106/48
o Cube.010
v -0.494658 -0.337071 6.853237
v -0.499632 1.114901 6.853237
v -0.494658 -0.337071 5.872244
v -0.499632 1.114901 5.872244
v 0.416112 -0.333951 6.853237
v 0.411138 1.118021 6.853237
v 0.416112 -0.333951 5.872244
v 0.411138 1.118021 5.872244
vn -1.0000 -0.0034 -0.0000
vn -0.0000 -0.0000 -1.0000
vn 1.0000 0.0034 -0.0000
vn -0.0000 -0.0000 1.0000
vn 0.0034 -1.0000 -0.0000
vn -0.0034 1.0000 -0.0000
vt 0.625000 0.000000
vt 0.375000 0.250000
vt 0.375000 0.000000
vt 0.625000 0.250000
vt 0.375000 0.500000
vt 0.625000 0.500000
vt 0.375000 0.750000
vt 0.625000 0.750000
vt 0.375000 1.000000
vt 0.125000 0.750000
vt 0.125000 0.500000
vt 0.875000 0.500000
vt 0.625000 1.000000
vt 0.875000 0.750000
s 0
usemtl Material.011
f 66/113/49 67/114/49 65/115/49
f 68/116/50 71/117/50 67/114/50
f 72/118/51 69/119/51 71/117/51
f 70/120/52 65/121/52 69/119/52
f 71/117/53 65/122/53 67/123/53
f 68/124/54 70/120/54 72/118/54
f 66/113/49 68/116/49 67/114/49
f 68/116/50 72/118/50 71/117/50
f 72/118/51 70/120/51 69/119/51
f 70/120/52 66/125/52 65/121/52
f 71/117/53 69/119/53 65/122/53
f 68/124/54 66/126/54 70/120/54
