# Blender 4.1.1
# www.blender.org
g polySurface218_Mesh
v 9.914508 0.135620 -1.570301
v 9.546794 0.135619 -3.101939
v 8.944009 0.135619 -4.557198
v 8.120991 0.135619 -5.900240
v 7.098006 0.135619 -7.098003
v 5.900246 0.135619 -8.120987
v 4.557201 0.135619 -8.944006
v 3.101943 0.135619 -9.546791
v 1.570306 0.135619 -9.914508
v 0.000002 0.135619 -10.038095
v -1.570301 0.135619 -9.914508
v -3.101939 0.135619 -9.546794
v -4.557197 0.135619 -8.944009
v -5.900240 0.135619 -8.120987
v -7.098001 0.135619 -7.098003
v -8.120987 0.135619 -5.900244
v -8.944006 0.135619 -4.557200
v -9.546791 0.135619 -3.101942
v -9.914506 0.135620 -1.570305
v -10.038091 0.135620 -0.000001
v -9.914506 0.135620 1.570302
v -9.546791 0.135620 3.101939
v -8.944006 0.135620 4.557197
v -8.120987 0.135620 5.900239
v -7.098003 0.135620 7.098000
v -5.900244 0.135620 8.120985
v -4.557199 0.135620 8.944003
v -3.101942 0.135620 9.546791
v -1.570304 0.135620 9.914505
v -0.000001 0.135620 10.038088
v 1.570302 0.135620 9.914505
v 3.101939 0.135620 9.546791
v 4.557197 0.135620 8.944003
v 5.900239 0.135620 8.120987
v 7.098000 0.135620 7.098001
v 8.120985 0.135620 5.900240
v 8.944001 0.135620 4.557198
v 9.546789 0.135620 3.101940
v 9.914500 0.135620 1.570303
v 10.038087 0.135620 0.000000
v 8.795608 0.135621 -1.393085
v 8.469388 0.135620 -2.751875
v 7.934636 0.135620 -4.042894
v 7.204498 0.135620 -5.234375
v 6.296955 0.135620 -6.296965
v 5.234380 0.135620 -7.204495
v 4.042899 0.135620 -7.934632
v 2.751880 0.135620 -8.469388
v 1.393090 0.135620 -8.795607
v 0.000004 0.135620 -8.905248
v -1.393091 0.135620 -8.795602
v -2.751872 0.135620 -8.469389
v -4.042897 0.135620 -7.934632
v -5.234369 0.135620 -7.204499
v -6.296956 0.135620 -6.296962
v -7.204498 0.135620 -5.234372
v -7.934628 0.135620 -4.042902
v -8.469388 0.135620 -2.751875
v -8.795601 0.135621 -1.393090
v -8.905248 0.135621 -0.000002
v -8.795601 0.135621 1.393090
v -8.469388 0.135621 2.751871
v -7.934632 0.135621 4.042894
v -7.204498 0.135621 5.234371
v -6.296966 0.135621 6.296949
v -5.234375 0.135621 7.204494
v -4.042897 0.135621 7.934628
v -2.751872 0.135621 8.469388
v -1.393090 0.135621 8.795601
v -0.000004 0.135621 8.905248
v 1.393088 0.135621 8.795601
v 2.751872 0.135621 8.469388
v 4.042894 0.135621 7.934628
v 5.234367 0.135621 7.204499
v 6.296955 0.135621 6.296955
v 7.204495 0.135621 5.234370
v 7.934628 0.135621 4.042891
v 8.469383 0.135621 2.751875
v 8.795601 0.135621 1.393087
v 8.905246 0.135621 -0.000003
v 9.231679 1.215286 -1.462152
v 8.889290 1.215286 -2.888304
v 8.328019 1.215286 -4.243335
v 7.561682 1.215286 -5.493882
v 6.609154 1.215286 -6.609151
v 5.493886 1.215286 -7.561680
v 4.243339 1.215286 -8.328016
v 2.888308 1.215286 -8.889288
v 1.462157 1.215286 -9.231679
v 0.000002 1.215286 -9.346751
v -1.462152 1.215286 -9.231679
v -2.888303 1.215286 -8.889288
v -4.243334 1.215286 -8.328019
v -5.493880 1.215286 -7.561680
v -6.609150 1.215286 -6.609153
v -7.561680 1.215286 -5.493884
v -8.328016 1.215286 -4.243338
v -8.889288 1.215286 -2.888306
v -9.231676 1.215286 -1.462156
v -9.346749 1.215287 -0.000001
v -9.231676 1.215287 1.462153
v -8.889288 1.215287 2.888303
v -8.328016 1.215287 4.243334
v -7.561680 1.215287 5.493880
v -6.609151 1.215287 6.609149
v -5.493882 1.215287 7.561677
v -4.243338 1.215287 8.328013
v -2.888305 1.215287 8.889288
v -1.462155 1.215287 9.231676
v -0.000001 1.215287 9.346749
v 1.462153 1.215287 9.231676
v 2.888304 1.215287 8.889288
v 4.243334 1.215287 8.328013
v 5.493880 1.215287 7.561680
v 6.609149 1.215287 6.609150
v 7.561677 1.215287 5.493880
v 8.328012 1.215287 4.243335
v 8.889285 1.215287 2.888304
v 9.231673 1.215287 1.462153
v 9.346745 1.215286 0.000000
v 8.408530 1.188052 -2.732098
v 8.732402 1.188052 -1.383077
v 7.877611 1.188052 -4.013841
v 7.152725 1.188052 -5.196754
v 6.251706 1.188051 -6.251706
v 5.196759 1.188051 -7.152721
v 4.013845 1.188051 -7.877611
v 2.732101 1.188051 -8.408528
v 1.383078 1.188051 -8.732402
v 0.000000 1.188051 -8.841250
v -1.383073 1.188051 -8.732402
v -2.732101 1.188051 -8.408528
v -4.013844 1.188051 -7.877611
v -5.196756 1.188051 -7.152723
v -6.251706 1.188051 -6.251704
v -7.152719 1.188052 -5.196758
v -7.877611 1.188052 -4.013845
v -8.408528 1.188052 -2.732097
v -8.732399 1.188052 -1.383079
v -8.841249 1.188052 -0.000004
v -8.732399 1.188052 1.383075
v -8.408528 1.188052 2.732098
v -7.877611 1.188052 4.013841
v -7.152721 1.188052 5.196754
v -6.251706 1.188052 6.251700
v -5.196758 1.188053 7.152718
v -4.013841 1.188053 7.877611
v -2.732098 1.188053 8.408528
v -1.383078 1.188053 8.732399
v 0.000002 1.188053 8.841249
v 1.383077 1.188053 8.732399
v 2.732098 1.188053 8.408528
v 4.013842 1.188053 7.877610
v 5.196749 1.188053 7.152723
v 6.251700 1.188052 6.251706
v 7.152719 1.188052 5.196754
v 7.877607 1.188052 4.013844
v 8.408521 1.188052 2.732101
v 8.732398 1.188052 1.383075
v 8.841247 1.188052 -0.000006
vn -0.0000 -1.0000 -0.0000
vn -0.9859 -0.0607 0.1561
vn -0.9493 -0.0607 0.3084
vn -0.8894 -0.0607 0.4532
vn -0.8075 -0.0607 0.5867
vn -0.7058 -0.0607 0.7058
vn -0.5867 -0.0607 0.8075
vn -0.4532 -0.0607 0.8894
vn -0.3084 -0.0607 0.9493
vn -0.1561 -0.0607 0.9859
vn -0.0000 -0.0607 0.9982
vn 0.1561 -0.0607 0.9859
vn 0.3084 -0.0607 0.9493
vn 0.4532 -0.0607 0.8894
vn 0.5867 -0.0607 0.8075
vn 0.7058 -0.0607 0.7058
vn 0.8075 -0.0607 0.5867
vn 0.8894 -0.0607 0.4532
vn 0.9493 -0.0607 0.3084
vn 0.9859 -0.0607 0.1561
vn 0.9982 -0.0607 -0.0000
vn 0.9859 -0.0607 -0.1561
vn 0.9493 -0.0607 -0.3084
vn 0.8894 -0.0607 -0.4532
vn 0.8075 -0.0607 -0.5867
vn 0.7058 -0.0607 -0.7058
vn 0.5867 -0.0607 -0.8075
vn 0.4532 -0.0607 -0.8894
vn 0.3084 -0.0607 -0.9493
vn 0.1562 -0.0607 -0.9859
vn 0.1561 -0.0607 -0.9859
vn -0.0000 -0.0607 -0.9982
vn -0.1561 -0.0607 -0.9859
vn -0.3084 -0.0607 -0.9493
vn -0.4532 -0.0607 -0.8894
vn -0.5867 -0.0607 -0.8075
vn -0.7058 -0.0607 -0.7058
vn -0.8075 -0.0607 -0.5867
vn -0.8894 -0.0607 -0.4532
vn -0.9493 -0.0607 -0.3084
vn -0.9859 -0.0607 -0.1562
vn -0.9859 -0.0607 -0.1561
vn -0.9982 -0.0607 -0.0000
vn 0.8009 0.5392 -0.2602
vn 0.8318 0.5392 -0.1317
vn 0.7504 0.5392 -0.3823
vn 0.6813 0.5393 -0.4950
vn 0.7504 0.5393 -0.3823
vn 0.5955 0.5392 -0.5955
vn 0.6813 0.5392 -0.4950
vn 0.4950 0.5392 -0.6813
vn 0.3823 0.5392 -0.7504
vn 0.2602 0.5392 -0.8009
vn 0.1317 0.5392 -0.8318
vn -0.0000 0.5392 -0.8421
vn -0.1317 0.5392 -0.8318
vn -0.0000 0.5393 -0.8421
vn -0.2602 0.5393 -0.8009
vn -0.3823 0.5392 -0.7504
vn -0.4950 0.5392 -0.6813
vn -0.5955 0.5392 -0.5955
vn -0.6813 0.5392 -0.4950
vn -0.7504 0.5392 -0.3823
vn -0.8009 0.5392 -0.2602
vn -0.8318 0.5392 -0.1317
vn -0.8421 0.5392 -0.0000
vn -0.8318 0.5392 0.1317
vn -0.8009 0.5392 0.2602
vn -0.7504 0.5392 0.3823
vn -0.6813 0.5392 0.4950
vn -0.5955 0.5392 0.5955
vn -0.4950 0.5393 0.6813
vn -0.4404 0.5381 0.7187
vn -0.3226 0.5381 0.7787
vn -0.2602 0.5392 0.8009
vn -0.1317 0.5392 0.8318
vn -0.0000 0.5392 0.8421
vn 0.1317 0.5392 0.8318
vn 0.2602 0.5392 0.8009
vn 0.3823 0.5392 0.7504
vn 0.4950 0.5392 0.6813
vn 0.5955 0.5392 0.5955
vn 0.6813 0.5392 0.4950
vn 0.7504 0.5392 0.3823
vn 0.8009 0.5392 0.2602
vn 0.8318 0.5392 0.1317
vn 0.8421 0.5392 -0.0000
vn 0.8421 0.5393 -0.0000
vt 0.562869 0.908332
vt 0.437131 0.908332
vt 0.562869 0.343404
vt 0.437131 0.343404
vt 0.437131 0.343404
vt 0.437131 0.908332
vt 0.541104 0.322765
vt 0.458896 0.722103
vt 0.458896 0.322765
vt 0.541104 0.722103
vt 0.541104 0.722103
vt 0.458896 0.322765
vt 0.541104 0.322765
s 1
f 41/1/1 2/1/1 1/1/1
f 2/1/1 43/1/1 3/1/1
f 43/1/1 4/1/1 3/1/1
f 44/1/1 5/1/1 4/1/1
f 45/1/1 6/1/1 5/1/1
f 46/1/1 7/1/1 6/1/1
f 7/1/1 48/1/1 8/1/1
f 8/1/1 49/1/1 9/1/1
f 9/1/1 50/1/1 10/1/1
f 50/1/1 11/1/1 10/1/1
f 51/1/1 12/1/1 11/1/1
f 52/1/1 13/1/1 12/1/1
f 53/1/1 14/1/1 13/1/1
f 14/1/1 55/1/1 15/1/1
f 15/1/1 56/1/1 16/1/1
f 16/1/1 57/1/1 17/1/1
f 17/1/1 58/1/1 18/1/1
f 18/1/1 59/1/1 19/1/1
f 19/1/1 60/1/1 20/1/1
f 60/1/1 21/1/1 20/1/1
f 61/1/1 22/1/1 21/1/1
f 22/1/1 63/1/1 23/1/1
f 23/1/1 64/1/1 24/1/1
f 24/1/1 65/1/1 25/1/1
f 25/1/1 66/1/1 26/1/1
f 66/1/1 27/1/1 26/1/1
f 67/1/1 28/1/1 27/1/1
f 28/1/1 69/1/1 29/1/1
f 29/1/1 70/1/1 30/1/1
f 70/1/1 31/1/1 30/1/1
f 71/1/1 32/1/1 31/1/1
f 72/1/1 33/1/1 32/1/1
f 33/1/1 74/1/1 34/1/1
f 74/1/1 35/1/1 34/1/1
f 35/1/1 76/1/1 36/1/1
f 76/1/1 37/1/1 36/1/1
f 77/1/1 38/1/1 37/1/1
f 38/1/1 79/1/1 39/1/1
f 39/1/1 80/1/1 40/1/1
f 40/1/1 41/1/1 1/1/1
f 41/2/2 121/3/3 42/1/3
f 42/2/3 123/3/4 43/1/4
f 43/2/4 124/3/5 44/1/5
f 44/2/5 125/3/6 45/1/6
f 45/2/6 126/3/7 46/1/7
f 126/4/7 47/1/8 46/2/7
f 127/4/8 48/1/9 47/2/8
f 128/4/9 49/1/10 48/2/9
f 129/4/10 50/1/11 49/2/10
f 50/2/11 131/3/12 51/1/12
f 51/2/12 132/3/13 52/1/13
f 132/4/13 53/1/14 52/2/13
f 133/4/14 54/1/15 53/2/14
f 134/4/15 55/1/16 54/2/15
f 135/4/16 56/1/17 55/2/16
f 136/4/17 57/1/18 56/2/17
f 137/4/18 58/1/19 57/2/18
f 138/4/19 59/1/20 58/2/19
f 59/2/20 140/3/21 60/1/21
f 60/2/21 141/3/22 61/1/22
f 61/2/22 142/3/23 62/1/23
f 142/4/23 63/1/24 62/2/23
f 143/4/24 64/1/25 63/2/24
f 144/4/25 65/1/26 64/2/25
f 145/4/26 66/1/27 65/2/26
f 146/4/27 67/1/28 66/2/27
f 147/5/28 68/1/29 67/6/28
f 148/4/29 69/1/30 68/2/29
f 149/4/31 70/1/32 69/2/30
f 150/4/32 71/1/33 70/2/32
f 71/2/33 152/3/34 72/1/34
f 152/4/34 73/1/35 72/2/34
f 73/2/35 154/3/36 74/1/36
f 74/2/36 155/3/37 75/1/37
f 75/2/37 156/3/38 76/1/38
f 76/2/38 157/3/39 77/1/39
f 77/2/39 158/3/40 78/1/40
f 158/4/40 79/1/41 78/2/40
f 159/4/42 80/1/43 79/2/41
f 160/4/43 41/1/2 80/2/43
f 2/7/44 81/8/45 1/9/45
f 2/9/44 83/10/46 82/8/44
f 4/7/47 83/8/46 3/9/48
f 5/7/49 84/8/50 4/9/47
f 6/7/51 85/8/49 5/9/49
f 7/7/52 86/8/51 6/9/51
f 8/7/53 87/8/52 7/9/52
f 8/9/53 89/10/54 88/8/53
f 9/9/54 90/10/55 89/8/54
f 11/7/56 90/8/55 10/9/57
f 12/7/58 91/8/56 11/9/56
f 12/9/58 93/10/59 92/8/58
f 14/7/60 93/8/59 13/9/59
f 14/9/60 95/10/61 94/8/60
f 16/7/62 95/8/61 15/9/61
f 16/9/62 97/10/63 96/8/62
f 18/7/64 97/8/63 17/9/63
f 18/9/64 99/10/65 98/8/64
f 20/7/66 99/8/65 19/9/65
f 20/9/66 101/10/67 100/8/66
f 22/7/68 101/8/67 21/9/67
f 22/9/68 103/10/69 102/8/68
f 24/7/70 103/8/69 23/9/69
f 25/7/71 104/8/70 24/9/70
f 26/7/72 105/8/71 25/9/71
f 26/9/72 107/11/73 106/8/72
f 27/12/74 108/10/75 107/8/74
f 29/7/76 108/8/75 28/9/75
f 30/7/77 109/8/76 29/9/76
f 30/9/77 111/10/78 110/8/77
f 32/7/79 111/8/78 31/9/78
f 33/7/80 112/8/79 32/9/79
f 34/7/81 113/8/80 33/9/80
f 35/7/82 114/8/81 34/9/81
f 36/7/83 115/8/82 35/9/82
f 36/9/83 117/10/84 116/8/83
f 38/7/85 117/8/84 37/9/84
f 39/7/86 118/8/85 38/9/85
f 40/7/87 119/8/86 39/9/86
f 40/9/87 81/10/45 120/8/88
f 41/1/1 42/1/1 2/1/1
f 2/1/1 42/1/1 43/1/1
f 43/1/1 44/1/1 4/1/1
f 44/1/1 45/1/1 5/1/1
f 45/1/1 46/1/1 6/1/1
f 46/1/1 47/1/1 7/1/1
f 7/1/1 47/1/1 48/1/1
f 8/1/1 48/1/1 49/1/1
f 9/1/1 49/1/1 50/1/1
f 50/1/1 51/1/1 11/1/1
f 51/1/1 52/1/1 12/1/1
f 52/1/1 53/1/1 13/1/1
f 53/1/1 54/1/1 14/1/1
f 14/1/1 54/1/1 55/1/1
f 15/1/1 55/1/1 56/1/1
f 16/1/1 56/1/1 57/1/1
f 17/1/1 57/1/1 58/1/1
f 18/1/1 58/1/1 59/1/1
f 19/1/1 59/1/1 60/1/1
f 60/1/1 61/1/1 21/1/1
f 61/1/1 62/1/1 22/1/1
f 22/1/1 62/1/1 63/1/1
f 23/1/1 63/1/1 64/1/1
f 24/1/1 64/1/1 65/1/1
f 25/1/1 65/1/1 66/1/1
f 66/1/1 67/1/1 27/1/1
f 67/1/1 68/1/1 28/1/1
f 28/1/1 68/1/1 69/1/1
f 29/1/1 69/1/1 70/1/1
f 70/1/1 71/1/1 31/1/1
f 71/1/1 72/1/1 32/1/1
f 72/1/1 73/1/1 33/1/1
f 33/1/1 73/1/1 74/1/1
f 74/1/1 75/1/1 35/1/1
f 35/1/1 75/1/1 76/1/1
f 76/1/1 77/1/1 37/1/1
f 77/1/1 78/1/1 38/1/1
f 38/1/1 78/1/1 79/1/1
f 39/1/1 79/1/1 80/1/1
f 40/1/1 80/1/1 41/1/1
f 41/2/2 122/4/2 121/3/3
f 42/2/3 121/4/3 123/3/4
f 43/2/4 123/4/4 124/3/5
f 44/2/5 124/4/5 125/3/6
f 45/2/6 125/4/6 126/3/7
f 126/4/7 127/3/8 47/1/8
f 127/4/8 128/3/9 48/1/9
f 128/4/9 129/3/10 49/1/10
f 129/4/10 130/3/11 50/1/11
f 50/2/11 130/4/11 131/3/12
f 51/2/12 131/4/12 132/3/13
f 132/4/13 133/3/14 53/1/14
f 133/4/14 134/3/15 54/1/15
f 134/4/15 135/3/16 55/1/16
f 135/4/16 136/3/17 56/1/17
f 136/4/17 137/3/18 57/1/18
f 137/4/18 138/3/19 58/1/19
f 138/4/19 139/3/20 59/1/20
f 59/2/20 139/4/20 140/3/21
f 60/2/21 140/4/21 141/3/22
f 61/2/22 141/4/22 142/3/23
f 142/4/23 143/3/24 63/1/24
f 143/4/24 144/3/25 64/1/25
f 144/4/25 145/3/26 65/1/26
f 145/4/26 146/3/27 66/1/27
f 146/4/27 147/3/28 67/1/28
f 147/5/28 148/3/29 68/1/29
f 148/4/29 149/3/31 69/1/30
f 149/4/31 150/3/32 70/1/32
f 150/4/32 151/3/33 71/1/33
f 71/2/33 151/4/33 152/3/34
f 152/4/34 153/3/35 73/1/35
f 73/2/35 153/4/35 154/3/36
f 74/2/36 154/4/36 155/3/37
f 75/2/37 155/4/37 156/3/38
f 76/2/38 156/4/38 157/3/39
f 77/2/39 157/4/39 158/3/40
f 158/4/40 159/3/42 79/1/41
f 159/4/42 160/3/43 80/1/43
f 160/4/43 122/3/2 41/1/2
f 2/7/44 82/10/44 81/8/45
f 2/9/44 3/7/48 83/10/46
f 4/7/47 84/10/50 83/8/46
f 5/7/49 85/10/49 84/8/50
f 6/7/51 86/10/51 85/8/49
f 7/7/52 87/10/52 86/8/51
f 8/7/53 88/10/53 87/8/52
f 8/9/53 9/7/54 89/10/54
f 9/9/54 10/7/57 90/10/55
f 11/7/56 91/10/56 90/8/55
f 12/7/58 92/10/58 91/8/56
f 12/9/58 13/7/59 93/10/59
f 14/7/60 94/10/60 93/8/59
f 14/9/60 15/7/61 95/10/61
f 16/7/62 96/10/62 95/8/61
f 16/9/62 17/7/63 97/10/63
f 18/7/64 98/10/64 97/8/63
f 18/9/64 19/7/65 99/10/65
f 20/7/66 100/10/66 99/8/65
f 20/9/66 21/7/67 101/10/67
f 22/7/68 102/10/68 101/8/67
f 22/9/68 23/7/69 103/10/69
f 24/7/70 104/10/70 103/8/69
f 25/7/71 105/10/71 104/8/70
f 26/7/72 106/10/72 105/8/71
f 26/9/72 27/13/73 107/11/73
f 27/12/74 28/7/75 108/10/75
f 29/7/76 109/10/76 108/8/75
f 30/7/77 110/10/77 109/8/76
f 30/9/77 31/7/78 111/10/78
f 32/7/79 112/10/79 111/8/78
f 33/7/80 113/10/80 112/8/79
f 34/7/81 114/10/81 113/8/80
f 35/7/82 115/10/82 114/8/81
f 36/7/83 116/10/83 115/8/82
f 36/9/83 37/7/84 117/10/84
f 38/7/85 118/10/85 117/8/84
f 39/7/86 119/10/86 118/8/85
f 40/7/87 120/10/88 119/8/86
f 40/9/87 1/7/45 81/10/45
