# Blender 4.1.1
# www.blender.org
mtllib tent_stage_ring_upper.mtl
g polySurface132_Mesh
v 9.138141 1.270920 -1.447337
v 8.799222 1.270920 -2.859039
v 8.243637 1.270920 -4.200341
v 7.485067 1.270920 -5.438216
v 6.542189 1.270919 -6.542184
v 5.438220 1.270919 -7.485063
v 4.200345 1.270919 -8.243635
v 2.859042 1.270919 -8.799220
v 1.447341 1.270919 -9.138141
v 0.000002 1.270919 -9.252048
v -1.447337 1.270919 -9.138141
v -2.859038 1.270919 -8.799220
v -4.200339 1.270919 -8.243637
v -5.438215 1.270919 -7.485064
v -6.542184 1.270919 -6.542187
v -7.485063 1.270920 -5.438219
v -8.243633 1.270920 -4.200344
v -8.799220 1.270920 -2.859041
v -9.138139 1.270920 -1.447340
v -9.252047 1.270920 -0.000001
v -9.138139 1.270920 1.447338
v -8.799220 1.270920 2.859038
v -8.243635 1.270920 4.200339
v -7.485063 1.270920 5.438215
v -6.542186 1.270920 6.542183
v -5.438217 1.270921 7.485061
v -4.200342 1.270921 8.243633
v -2.859041 1.270921 8.799219
v -1.447340 1.270921 9.138137
v -0.000001 1.270921 9.252045
v 1.447338 1.270921 9.138137
v 2.859039 1.270921 8.799219
v 4.200339 1.270921 8.243633
v 5.438215 1.270921 7.485063
v 6.542183 1.270920 6.542184
v 7.485061 1.270920 5.438215
v 8.243631 1.270920 4.200341
v 8.799216 1.270920 2.859039
v 9.138135 1.270920 1.447338
v 9.252042 1.270920 -0.000000
v 8.479211 1.270920 -2.755065
v 8.805806 1.270920 -1.394704
v 7.943834 1.270920 -4.047579
v 7.212851 1.270920 -5.240438
v 6.304262 1.270919 -6.304259
v 5.240445 1.270919 -7.212846
v 4.047585 1.270919 -7.943831
v 2.755067 1.270919 -8.479209
v 1.394705 1.270919 -8.805806
v 0.000000 1.270919 -8.915569
v -1.394699 1.270919 -8.805806
v -2.755067 1.270919 -8.479209
v -4.047584 1.270919 -7.943831
v -5.240439 1.270919 -7.212846
v -6.304262 1.270919 -6.304258
v -7.212845 1.270920 -5.240444
v -7.943830 1.270920 -4.047585
v -8.479209 1.270920 -2.755063
v -8.805803 1.270920 -1.394705
v -8.915568 1.270920 -0.000004
v -8.805803 1.270920 1.394702
v -8.479209 1.270920 2.755064
v -7.943830 1.270920 4.047582
v -7.212846 1.270920 5.240438
v -6.304263 1.270920 6.304254
v -5.240442 1.270921 7.212842
v -4.047582 1.270921 7.943830
v -2.755064 1.270921 8.479209
v -1.394705 1.270921 8.805800
v 0.000002 1.270921 8.915566
v 1.394703 1.270921 8.805800
v 2.755064 1.270921 8.479209
v 4.047584 1.270921 7.943827
v 5.240434 1.270921 7.212849
v 6.304254 1.270920 6.304259
v 7.212845 1.270920 5.240438
v 7.943826 1.270920 4.047585
v 8.479205 1.270920 2.755067
v 8.805799 1.270920 1.394702
v 8.915565 1.270920 -0.000006
v 9.346746 1.215286 0.000000
v 9.231679 1.215286 -1.462152
v 8.889291 1.215286 -2.888304
v 8.328019 1.215286 -4.243335
v 7.561684 1.215286 -5.493882
v 6.609154 1.215286 -6.609151
v 5.493886 1.215286 -7.561680
v 4.243340 1.215286 -8.328016
v 2.888308 1.215286 -8.889288
v 1.462157 1.215286 -9.231679
v 0.000002 1.215286 -9.346752
v -1.462152 1.215286 -9.231679
v -2.888303 1.215285 -8.889290
v -4.243334 1.215286 -8.328019
v -5.493880 1.215286 -7.561681
v -6.609150 1.215286 -6.609153
v -7.561680 1.215286 -5.493885
v -8.328016 1.215286 -4.243338
v -8.889288 1.215286 -2.888306
v -9.231676 1.215286 -1.462156
v -9.346749 1.215286 -0.000001
v -9.231676 1.215286 1.462153
v -8.889288 1.215286 2.888303
v -8.328016 1.215286 4.243334
v -7.561680 1.215286 5.493880
v -6.609151 1.215287 6.609149
v -5.493882 1.215287 7.561678
v -4.243338 1.215287 8.328014
v -2.888305 1.215287 8.889288
v -1.462155 1.215287 9.231676
v -0.000001 1.215287 9.346749
v 1.462153 1.215287 9.231676
v 2.888304 1.215287 8.889288
v 4.243334 1.215287 8.328014
v 5.493880 1.215287 7.561680
v 6.609149 1.215287 6.609150
v 7.561678 1.215287 5.493880
v 8.328012 1.215286 4.243335
v 8.889285 1.215286 2.888304
v 9.231673 1.215286 1.462153
v 7.877615 1.188051 -4.013840
v 8.408529 1.188051 -2.732098
v 8.732400 1.188051 -1.383077
v 8.841246 1.188052 -0.000006
v 8.732394 1.188052 1.383076
v 8.408523 1.188052 2.732101
v 7.877607 1.188052 4.013844
v 7.152719 1.188052 5.196754
v 6.251703 1.188052 6.251708
v 5.196750 1.188052 7.152723
v 4.013843 1.188052 7.877609
v 2.732097 1.188052 8.408526
v 1.383077 1.188052 8.732396
v 0.000002 1.188052 8.841247
v -1.383079 1.188052 8.732396
v -2.732098 1.188052 8.408526
v -4.013841 1.188052 7.877611
v -5.196759 1.188052 7.152717
v -6.251710 1.188052 6.251703
v -7.152720 1.188052 5.196754
v -7.877611 1.188052 4.013841
v -8.408526 1.188052 2.732098
v -8.732398 1.188052 1.383076
v -8.841247 1.188052 -0.000004
v -8.732398 1.188051 -1.383079
v -8.408526 1.188051 -2.732096
v -7.877611 1.188051 -4.013845
v -7.152719 1.188051 -5.196760
v -6.251710 1.188051 -6.251706
v -5.196755 1.188051 -7.152721
v -4.013844 1.188051 -7.877613
v -2.732101 1.188051 -8.408526
v -1.383073 1.188051 -8.732400
v 0.000000 1.188051 -8.841249
v 1.383079 1.188051 -8.732400
v 2.732101 1.188051 -8.408526
v 4.013845 1.188051 -7.877613
v 5.196760 1.188051 -7.152720
v 6.251710 1.188051 -6.251709
v 7.152725 1.188051 -5.196754
vn 0.5003 0.8622 -0.0792
vn 0.5065 0.8622 -0.0000
vn 0.4817 0.8622 -0.1565
vn 0.4513 0.8622 -0.2300
vn 0.4098 0.8622 -0.2977
vn 0.3582 0.8622 -0.3582
vn 0.2977 0.8622 -0.4098
vn 0.2300 0.8622 -0.4513
vn 0.1565 0.8622 -0.4817
vn 0.0792 0.8622 -0.5003
vn -0.0000 0.8622 -0.5065
vn -0.0792 0.8622 -0.5003
vn -0.1565 0.8622 -0.4817
vn -0.2300 0.8622 -0.4513
vn -0.2977 0.8622 -0.4098
vn -0.3582 0.8622 -0.3582
vn -0.4098 0.8622 -0.2977
vn -0.4513 0.8622 -0.2300
vn -0.4817 0.8622 -0.1565
vn -0.5003 0.8622 -0.0792
vn -0.5065 0.8622 -0.0000
vn -0.5003 0.8622 0.0792
vn -0.4817 0.8622 0.1565
vn -0.4513 0.8622 0.2300
vn -0.4098 0.8622 0.2977
vn -0.3582 0.8622 0.3582
vn -0.2977 0.8622 0.4098
vn -0.2300 0.8622 0.4513
vn -0.1565 0.8622 0.4817
vn -0.0792 0.8622 0.5003
vn -0.0000 0.8622 0.5065
vn 0.0792 0.8622 0.5003
vn 0.1565 0.8622 0.4817
vn 0.2300 0.8622 0.4513
vn 0.2977 0.8622 0.4098
vn 0.3582 0.8622 0.3582
vn 0.4098 0.8622 0.2977
vn 0.4513 0.8622 0.2300
vn 0.4817 0.8622 0.1565
vn 0.5003 0.8622 0.0792
vn -0.7080 0.6677 0.2301
vn -0.6633 0.6677 0.3380
vn -0.7353 0.6677 0.1165
vn -0.7445 0.6677 -0.0000
vn -0.6023 0.6677 0.4376
vn -0.5264 0.6677 0.5264
vn -0.4376 0.6677 0.6023
vn -0.3380 0.6677 0.6633
vn -0.2301 0.6677 0.7080
vn -0.1165 0.6677 0.7353
vn -0.0000 0.6677 0.7445
vn 0.1165 0.6677 0.7353
vn 0.2301 0.6677 0.7080
vn 0.3380 0.6677 0.6633
vn 0.4376 0.6677 0.6023
vn 0.5264 0.6677 0.5264
vn 0.6023 0.6677 0.4376
vn 0.6633 0.6677 0.3380
vn 0.7080 0.6677 0.2301
vn 0.7353 0.6677 0.1165
vn 0.7445 0.6677 -0.0000
vn 0.7353 0.6677 -0.1165
vn 0.7080 0.6677 -0.2300
vn 0.7080 0.6677 -0.2301
vn 0.6633 0.6677 -0.3380
vn 0.6023 0.6677 -0.4376
vn 0.5264 0.6677 -0.5264
vn 0.4376 0.6677 -0.6023
vn 0.3380 0.6677 -0.6633
vn 0.2301 0.6677 -0.7080
vn 0.1165 0.6677 -0.7353
vn -0.0000 0.6677 -0.7445
vn -0.1165 0.6677 -0.7353
vn -0.2301 0.6677 -0.7080
vn -0.3380 0.6677 -0.6633
vn -0.4376 0.6677 -0.6023
vn -0.5264 0.6677 -0.5264
vn -0.6023 0.6677 -0.4376
vn -0.6633 0.6677 -0.3380
vn -0.7080 0.6677 -0.2301
vn -0.7353 0.6677 -0.1165
vn -0.0000 1.0000 -0.0000
vt 0.624989 0.688440
vt 0.618750 0.670017
vt 0.625000 0.670017
vt 0.375000 0.670017
vt 0.381239 0.688440
vt 0.375011 0.687800
vt 0.381261 0.687800
vt 0.387500 0.670017
vt 0.387489 0.688440
vt 0.387511 0.687800
vt 0.393750 0.670017
vt 0.393739 0.688440
vt 0.399989 0.688440
vt 0.393761 0.687800
vt 0.400000 0.670017
vt 0.406239 0.688440
vt 0.400011 0.687800
vt 0.406261 0.687800
vt 0.412500 0.670017
vt 0.412489 0.688440
vt 0.412511 0.687800
vt 0.418750 0.670017
vt 0.418739 0.688440
vt 0.424989 0.688440
vt 0.418761 0.687800
vt 0.425000 0.670017
vt 0.431239 0.688440
vt 0.425011 0.687800
vt 0.431250 0.670017
vt 0.437489 0.688440
vt 0.431261 0.687800
vt 0.437500 0.670017
vt 0.443739 0.688440
vt 0.437511 0.687800
vt 0.443750 0.670017
vt 0.449989 0.688440
vt 0.443761 0.687800
vt 0.450000 0.670017
vt 0.456239 0.688440
vt 0.450011 0.687800
vt 0.456261 0.687800
vt 0.462500 0.670017
vt 0.462489 0.688440
vt 0.462511 0.687800
vt 0.468750 0.670017
vt 0.468738 0.688440
vt 0.468761 0.687800
vt 0.475000 0.670017
vt 0.474988 0.688440
vt 0.481238 0.688440
vt 0.475011 0.687800
vt 0.481261 0.687800
vt 0.487500 0.670017
vt 0.487488 0.688440
vt 0.493738 0.688440
vt 0.487511 0.687800
vt 0.493750 0.670017
vt 0.499988 0.688440
vt 0.493761 0.687800
vt 0.500000 0.670017
vt 0.506239 0.688440
vt 0.500011 0.687800
vt 0.506250 0.670017
vt 0.512489 0.688440
vt 0.506261 0.687800
vt 0.512500 0.670017
vt 0.518739 0.688440
vt 0.512511 0.687800
vt 0.518761 0.687800
vt 0.525000 0.670017
vt 0.524989 0.688440
vt 0.525011 0.687800
vt 0.531250 0.670017
vt 0.531239 0.688440
vt 0.531261 0.687800
vt 0.537500 0.670017
vt 0.537489 0.688440
vt 0.537511 0.687800
vt 0.543750 0.670017
vt 0.543739 0.688440
vt 0.549989 0.688440
vt 0.543761 0.687800
vt 0.550011 0.687800
vt 0.556250 0.670017
vt 0.556239 0.688440
vt 0.562489 0.688440
vt 0.556261 0.687800
vt 0.562511 0.687800
vt 0.568750 0.670017
vt 0.568739 0.688440
vt 0.574989 0.688440
vt 0.568761 0.687800
vt 0.575000 0.670017
vt 0.581239 0.688440
vt 0.575011 0.687800
vt 0.581250 0.670017
vt 0.587489 0.688440
vt 0.581261 0.687800
vt 0.587500 0.670017
vt 0.593739 0.688440
vt 0.587511 0.687800
vt 0.593750 0.670017
vt 0.599989 0.688440
vt 0.593761 0.687800
vt 0.600000 0.670017
vt 0.606239 0.688440
vt 0.600011 0.687800
vt 0.606250 0.670017
vt 0.612489 0.688440
vt 0.606261 0.687800
vt 0.612511 0.687800
vt 0.618739 0.688440
vt 0.381250 0.660999
vt 0.387500 0.688440
vt 0.387500 0.660999
vt 0.375000 0.688440
vt 0.381250 0.688440
vt 0.625000 0.660999
vt 0.618750 0.688440
vt 0.625000 0.688440
vt 0.393750 0.688440
vt 0.393750 0.660999
vt 0.400000 0.688440
vt 0.400000 0.660999
vt 0.406250 0.688440
vt 0.406250 0.660999
vt 0.412500 0.688440
vt 0.412500 0.660999
vt 0.418750 0.688440
vt 0.418750 0.660999
vt 0.425000 0.660999
vt 0.425000 0.688440
vt 0.431250 0.660999
vt 0.431250 0.688440
vt 0.437500 0.660999
vt 0.443750 0.688440
vt 0.443750 0.660999
vt 0.450000 0.660999
vt 0.450000 0.688440
vt 0.456250 0.660999
vt 0.456250 0.688440
vt 0.462500 0.660999
vt 0.462500 0.688440
vt 0.468750 0.660999
vt 0.468750 0.688440
vt 0.475000 0.660999
vt 0.475000 0.688440
vt 0.481250 0.660999
vt 0.481250 0.688440
vt 0.487500 0.660999
vt 0.493750 0.688440
vt 0.493750 0.660999
vt 0.500000 0.660999
vt 0.500000 0.688440
vt 0.506250 0.660999
vt 0.506250 0.688440
vt 0.512500 0.660999
vt 0.512500 0.688440
vt 0.518750 0.660999
vt 0.525000 0.688440
vt 0.525000 0.660999
vt 0.531250 0.688440
vt 0.531250 0.660999
vt 0.537500 0.688440
vt 0.537500 0.660999
vt 0.543750 0.688440
vt 0.543750 0.660999
vt 0.550000 0.660999
vt 0.550000 0.688440
vt 0.556250 0.660999
vt 0.556250 0.688440
vt 0.562500 0.660999
vt 0.568750 0.688440
vt 0.568750 0.660999
vt 0.575000 0.660999
vt 0.575000 0.688440
vt 0.581250 0.660999
vt 0.587500 0.688440
vt 0.587500 0.660999
vt 0.593750 0.660999
vt 0.600000 0.688440
vt 0.600000 0.660999
vt 0.606250 0.688440
vt 0.606250 0.660999
vt 0.612500 0.688440
vt 0.612500 0.660999
vt 0.618750 0.660999
vt 0.437500 0.688440
vt 0.450000 0.688440
vt 0.475000 0.688440
vt 0.487500 0.688440
vt 0.500000 0.688440
vt 0.518750 0.688440
vt 0.562500 0.688440
vt 0.581250 0.688440
vt 0.593750 0.688440
vt 0.618761 0.687800
vt 0.381250 0.670017
vt 0.406250 0.670017
vt 0.456250 0.670017
vt 0.481250 0.670017
vt 0.518750 0.670017
vt 0.550000 0.670017
vt 0.562500 0.670017
vt 0.612500 0.670017
vt 0.375000 0.660999
s 1
usemtl lambert25
f 1/1/1 81/2/2 82/3/1
f 82/4/1 2/5/3 1/6/1
f 2/7/3 84/8/4 3/9/4
f 3/10/4 85/11/5 4/12/5
f 85/11/5 5/13/6 4/14/5
f 86/15/6 6/16/7 5/17/6
f 6/18/7 88/19/8 7/20/8
f 7/21/8 89/22/9 8/23/9
f 89/22/9 9/24/10 8/25/9
f 90/26/10 10/27/11 9/28/10
f 91/29/11 11/30/12 10/31/11
f 92/32/12 12/33/13 11/34/12
f 93/35/13 13/36/14 12/37/13
f 94/38/14 14/39/15 13/40/14
f 14/41/15 96/42/16 15/43/16
f 15/44/16 97/45/17 16/46/17
f 16/47/17 98/48/18 17/49/18
f 98/48/18 18/50/19 17/51/18
f 18/52/19 100/53/20 19/54/20
f 100/53/20 20/55/21 19/56/20
f 101/57/21 21/58/22 20/59/21
f 102/60/22 22/61/23 21/62/22
f 103/63/23 23/64/24 22/65/23
f 104/66/24 24/67/25 23/68/24
f 24/69/25 106/70/26 25/71/26
f 25/72/26 107/73/27 26/74/27
f 26/75/27 108/76/28 27/77/28
f 27/78/28 109/79/29 28/80/29
f 109/79/29 29/81/30 28/82/29
f 29/83/30 111/84/31 30/85/31
f 111/84/31 31/86/32 30/87/31
f 31/88/32 113/89/33 32/90/33
f 113/89/33 33/91/34 32/92/33
f 114/93/34 34/94/35 33/95/34
f 115/96/35 35/97/36 34/98/35
f 116/99/36 36/100/37 35/101/36
f 117/102/37 37/103/38 36/104/37
f 118/105/38 38/106/39 37/107/38
f 119/108/39 39/109/40 38/110/39
f 39/111/40 81/2/2 40/112/2
f 122/113/41 43/114/42 121/115/42
f 122/113/41 42/116/43 41/117/41
f 123/118/43 80/119/44 42/120/43
f 121/115/42 44/121/45 160/122/45
f 160/122/45 45/123/46 159/124/46
f 159/124/46 46/125/47 158/126/47
f 158/126/47 47/127/48 157/128/48
f 157/128/48 48/129/49 156/130/49
f 48/129/49 155/131/50 156/130/49
f 49/132/50 154/133/51 155/131/50
f 50/134/51 153/135/52 154/133/51
f 153/135/52 52/136/53 152/137/53
f 52/136/53 151/138/54 152/137/53
f 53/139/54 150/140/55 151/138/54
f 54/141/55 149/142/56 150/140/55
f 55/143/56 148/144/57 149/142/56
f 56/145/57 147/146/58 148/144/57
f 57/147/58 146/148/59 147/146/58
f 58/149/59 145/150/60 146/148/59
f 145/150/60 60/151/61 144/152/61
f 60/151/61 143/153/62 144/152/61
f 61/154/62 142/155/63 143/153/62
f 62/156/64 141/157/65 142/155/63
f 63/158/65 140/159/66 141/157/65
f 140/159/66 65/160/67 139/161/67
f 139/161/67 66/162/68 138/163/68
f 138/163/68 67/164/69 137/165/69
f 137/165/69 68/166/70 136/167/70
f 68/166/70 135/168/71 136/167/70
f 69/169/71 134/170/72 135/168/71
f 70/171/72 133/172/73 134/170/72
f 133/172/73 72/173/74 132/174/74
f 72/173/74 131/175/75 132/174/74
f 73/176/75 130/177/76 131/175/75
f 130/177/76 75/178/77 129/179/77
f 75/178/77 128/180/78 129/179/77
f 128/180/78 77/181/79 127/182/79
f 127/182/79 78/183/80 126/184/80
f 126/184/80 79/185/81 125/186/81
f 79/185/81 124/187/44 125/186/81
f 2/117/82 42/116/82 1/116/82
f 43/114/82 2/117/82 3/114/82
f 44/121/82 3/114/82 4/121/82
f 5/123/82 44/121/82 4/121/82
f 46/125/82 5/123/82 6/125/82
f 7/127/82 46/125/82 6/125/82
f 48/129/82 7/127/82 8/129/82
f 49/132/82 8/129/82 9/132/82
f 10/134/82 49/132/82 9/132/82
f 51/188/82 10/134/82 11/188/82
f 12/136/82 51/188/82 11/188/82
f 13/189/82 52/136/82 12/136/82
f 14/141/82 53/139/82 13/189/82
f 15/143/82 54/141/82 14/141/82
f 16/145/82 55/143/82 15/143/82
f 57/147/82 16/145/82 17/190/82
f 18/149/82 57/147/82 17/190/82
f 59/191/82 18/149/82 19/191/82
f 60/151/82 19/191/82 20/151/82
f 61/154/82 20/151/82 21/192/82
f 22/156/82 61/154/82 21/192/82
f 23/158/82 62/156/82 22/156/82
f 24/193/82 63/158/82 23/158/82
f 65/160/82 24/193/82 25/160/82
f 66/162/82 25/160/82 26/162/82
f 67/164/82 26/162/82 27/164/82
f 28/166/82 67/164/82 27/164/82
f 69/169/82 28/166/82 29/169/82
f 30/171/82 69/169/82 29/169/82
f 31/194/82 70/171/82 30/171/82
f 32/173/82 71/194/82 31/194/82
f 33/176/82 72/173/82 32/173/82
f 74/195/82 33/176/82 34/195/82
f 75/178/82 34/195/82 35/178/82
f 76/196/82 35/178/82 36/196/82
f 77/181/82 36/196/82 37/181/82
f 78/183/82 37/181/82 38/183/82
f 79/185/82 38/183/82 39/185/82
f 40/119/82 79/185/82 39/185/82
f 1/120/82 80/119/82 40/119/82
f 1/1/1 40/197/2 81/2/2
f 82/4/1 83/198/3 2/5/3
f 2/7/3 83/198/3 84/8/4
f 3/10/4 84/8/4 85/11/5
f 85/11/5 86/15/6 5/13/6
f 86/15/6 87/199/7 6/16/7
f 6/18/7 87/199/7 88/19/8
f 7/21/8 88/19/8 89/22/9
f 89/22/9 90/26/10 9/24/10
f 90/26/10 91/29/11 10/27/11
f 91/29/11 92/32/12 11/30/12
f 92/32/12 93/35/13 12/33/13
f 93/35/13 94/38/14 13/36/14
f 94/38/14 95/200/15 14/39/15
f 14/41/15 95/200/15 96/42/16
f 15/44/16 96/42/16 97/45/17
f 16/47/17 97/45/17 98/48/18
f 98/48/18 99/201/19 18/50/19
f 18/52/19 99/201/19 100/53/20
f 100/53/20 101/57/21 20/55/21
f 101/57/21 102/60/22 21/58/22
f 102/60/22 103/63/23 22/61/23
f 103/63/23 104/66/24 23/64/24
f 104/66/24 105/202/25 24/67/25
f 24/69/25 105/202/25 106/70/26
f 25/72/26 106/70/26 107/73/27
f 26/75/27 107/73/27 108/76/28
f 27/78/28 108/76/28 109/79/29
f 109/79/29 110/203/30 29/81/30
f 29/83/30 110/203/30 111/84/31
f 111/84/31 112/204/32 31/86/32
f 31/88/32 112/204/32 113/89/33
f 113/89/33 114/93/34 33/91/34
f 114/93/34 115/96/35 34/94/35
f 115/96/35 116/99/36 35/97/36
f 116/99/36 117/102/37 36/100/37
f 117/102/37 118/105/38 37/103/38
f 118/105/38 119/108/39 38/106/39
f 119/108/39 120/205/40 39/109/40
f 39/111/40 120/205/40 81/2/2
f 122/113/41 41/117/41 43/114/42
f 122/113/41 123/206/43 42/116/43
f 123/118/43 124/187/44 80/119/44
f 121/115/42 43/114/42 44/121/45
f 160/122/45 44/121/45 45/123/46
f 159/124/46 45/123/46 46/125/47
f 158/126/47 46/125/47 47/127/48
f 157/128/48 47/127/48 48/129/49
f 48/129/49 49/132/50 155/131/50
f 49/132/50 50/134/51 154/133/51
f 50/134/51 51/188/52 153/135/52
f 153/135/52 51/188/52 52/136/53
f 52/136/53 53/139/54 151/138/54
f 53/139/54 54/141/55 150/140/55
f 54/141/55 55/143/56 149/142/56
f 55/143/56 56/145/57 148/144/57
f 56/145/57 57/147/58 147/146/58
f 57/147/58 58/149/59 146/148/59
f 58/149/59 59/191/60 145/150/60
f 145/150/60 59/191/60 60/151/61
f 60/151/61 61/154/62 143/153/62
f 61/154/62 62/156/64 142/155/63
f 62/156/64 63/158/65 141/157/65
f 63/158/65 64/193/66 140/159/66
f 140/159/66 64/193/66 65/160/67
f 139/161/67 65/160/67 66/162/68
f 138/163/68 66/162/68 67/164/69
f 137/165/69 67/164/69 68/166/70
f 68/166/70 69/169/71 135/168/71
f 69/169/71 70/171/72 134/170/72
f 70/171/72 71/194/73 133/172/73
f 133/172/73 71/194/73 72/173/74
f 72/173/74 73/176/75 131/175/75
f 73/176/75 74/195/76 130/177/76
f 130/177/76 74/195/76 75/178/77
f 75/178/77 76/196/78 128/180/78
f 128/180/78 76/196/78 77/181/79
f 127/182/79 77/181/79 78/183/80
f 126/184/80 78/183/80 79/185/81
f 79/185/81 80/119/44 124/187/44
f 2/117/82 41/117/82 42/116/82
f 43/114/82 41/117/82 2/117/82
f 44/121/82 43/114/82 3/114/82
f 5/123/82 45/123/82 44/121/82
f 46/125/82 45/123/82 5/123/82
f 7/127/82 47/127/82 46/125/82
f 48/129/82 47/127/82 7/127/82
f 49/132/82 48/129/82 8/129/82
f 10/134/82 50/134/82 49/132/82
f 51/188/82 50/134/82 10/134/82
f 12/136/82 52/136/82 51/188/82
f 13/189/82 53/139/82 52/136/82
f 14/141/82 54/141/82 53/139/82
f 15/143/82 55/143/82 54/141/82
f 16/145/82 56/145/82 55/143/82
f 57/147/82 56/145/82 16/145/82
f 18/149/82 58/149/82 57/147/82
f 59/191/82 58/149/82 18/149/82
f 60/151/82 59/191/82 19/191/82
f 61/154/82 60/151/82 20/151/82
f 22/156/82 62/156/82 61/154/82
f 23/158/82 63/158/82 62/156/82
f 24/193/82 64/193/82 63/158/82
f 65/160/82 64/193/82 24/193/82
f 66/162/82 65/160/82 25/160/82
f 67/164/82 66/162/82 26/162/82
f 28/166/82 68/166/82 67/164/82
f 69/169/82 68/166/82 28/166/82
f 30/171/82 70/171/82 69/169/82
f 31/194/82 71/194/82 70/171/82
f 32/173/82 72/173/82 71/194/82
f 33/176/82 73/176/82 72/173/82
f 74/195/82 73/176/82 33/176/82
f 75/178/82 74/195/82 34/195/82
f 76/196/82 75/178/82 35/178/82
f 77/181/82 76/196/82 36/196/82
f 78/183/82 77/181/82 37/181/82
f 79/185/82 78/183/82 38/183/82
f 40/119/82 80/119/82 79/185/82
f 1/120/82 42/120/82 80/119/82
